<svg width="60" height="60" viewBox="0 0 60 60" fill="none" xmlns="http://www.w3.org/2000/svg">
<g style="mix-blend-mode:multiply">
<path d="M48.7292 58.8105C48.7292 59.4675 40.4388 59.9999 30.2112 59.9999C19.9835 59.9999 11.6931 59.4675 11.6931 58.8105C11.6931 58.1536 19.9846 57.6212 30.2112 57.6212C40.4377 57.6212 48.7292 58.1536 48.7292 58.8105Z" fill="#D1D3D4"/>
</g>
<path opacity="0.97" d="M20.3173 35.5331C20.2906 35.5837 17.5795 40.6217 11.841 39.9722C9.52849 39.7107 7.8172 38.4928 6.75501 36.3534C6.14042 35.1155 5.91774 33.8976 5.84091 33.3283C6.53456 32.9814 7.3106 32.2517 7.7348 30.7259C8.52643 27.8779 5.45011 28.3303 5.17176 29.3394C5.15283 28.9977 4.92793 28.519 4.19865 28.732C3.17321 29.0315 2.96834 30.205 3.14649 31.309C3.14649 31.309 2.1834 30.437 2.95053 29.1707C3.71766 27.9043 3.93255 27.4077 3.45267 27.0766C2.90933 26.7012 0.54336 28.7658 2.20232 31.3839C2.20232 31.3839 1.00542 30.6068 1.32608 29.1211C1.64674 27.6354 1.68459 27.1272 1.1535 26.9964C0.328474 26.7929 -2.00632 32.6756 3.89914 33.5655C3.99156 34.2635 4.25209 35.6448 4.95465 37.0841C6.29963 39.8383 8.60103 41.4737 11.6105 41.8153C12.0303 41.8628 12.4467 41.886 12.8576 41.886C15.3271 41.886 17.6207 41.0329 19.5513 39.3838C21.227 37.953 22.0398 36.423 22.0743 36.3576L20.3196 35.532L20.3173 35.5331ZM4.21646 30.5741C4.55494 29.7632 4.97023 30.2135 5.15394 29.5524C5.16063 29.6061 5.1751 29.661 5.19848 29.7168C5.19848 29.7168 5.28533 30.068 6.07027 29.9836C6.85522 29.8993 6.30186 31.8584 5.74961 31.9765C5.19737 32.0946 3.65976 31.9048 4.21646 30.5752V30.5741Z" fill="#EF7668"/>
<g opacity="0.97">
<path d="M23.9405 31.0371L22.9518 36.4769L19.939 34.8309L23.8448 31.0371H23.9405Z" fill="#457C9D"/>
<path d="M25.1352 30.0838C25.251 30.2146 25.3 30.3875 25.2699 30.5551L24.0096 37.4933C23.975 37.6799 23.847 37.8391 23.6655 37.9203C23.5831 37.9562 23.4941 37.9751 23.4061 37.9751C23.2992 37.9751 23.1945 37.9498 23.0999 37.8971L18.6441 35.4614C18.4804 35.3718 18.3702 35.2157 18.3446 35.0386C18.319 34.8625 18.3802 34.6822 18.5127 34.5546L23.1489 30.0511C23.2636 29.9394 23.4228 29.8761 23.5876 29.8761H24.6687C24.8491 29.8761 25.0205 29.952 25.1363 30.0828L25.1352 30.0838ZM22.9518 36.4768L23.9405 31.037H23.8448L19.939 34.8298L22.9529 36.4768H22.9518Z" fill="#33597F"/>
</g>
<g opacity="0.97">
<path d="M37.9258 36.4028C37.9592 36.4672 38.7731 37.9982 40.4487 39.429C42.3794 41.0782 44.673 41.9312 47.1425 41.9312C47.5533 41.9312 47.9698 41.908 48.3895 41.8605C51.399 41.52 53.7004 39.8846 55.0454 37.1293C55.748 35.6911 56.0085 34.3098 56.1009 33.6107C62.0064 32.7208 59.6716 26.8371 58.8465 27.0416C58.3155 27.1724 58.3522 27.6806 58.674 29.1663C58.9946 30.6531 57.7977 31.4291 57.7977 31.4291C59.4567 28.811 57.0907 26.7464 56.5474 27.1218C56.0675 27.4529 56.2824 27.9495 57.0495 29.2159C57.8167 30.4822 56.8536 31.3542 56.8536 31.3542C57.0317 30.2503 56.8268 29.0767 55.8014 28.7772C55.0721 28.5642 54.8461 29.0429 54.8283 29.3846C54.5499 28.3744 51.4736 27.9231 52.2652 30.7712C52.6895 32.2969 53.4655 33.0266 54.1591 33.3735C54.0834 33.9429 53.8596 35.1607 53.245 36.3986C52.1829 38.5381 50.4716 39.7559 48.159 40.0174C42.4217 40.6669 39.7094 35.6289 39.6827 35.5783L37.928 36.4039L37.9258 36.4028ZM54.2482 32.0206C53.696 31.9026 53.1426 29.9434 53.9275 30.0278C54.7125 30.1121 54.7993 29.761 54.7993 29.761C54.8238 29.7051 54.8372 29.6503 54.8439 29.5965C55.0276 30.2587 55.4429 29.8085 55.7814 30.6193C56.3369 31.95 54.8005 32.1398 54.2471 32.0206H54.2482Z" fill="#EF7668"/>
<path d="M36.0576 31.0812L37.0463 36.521L40.0592 34.8739L36.1534 31.0812H36.0576Z" fill="#457C9D"/>
<path d="M35.3304 29.9213H36.4115C36.5752 29.9213 36.7344 29.9856 36.8502 30.0964L41.4864 34.5998C41.6189 34.7274 41.6801 34.9067 41.6545 35.0838C41.6289 35.2609 41.5187 35.418 41.3539 35.5066L36.8981 37.9423C36.8035 37.994 36.6988 38.0204 36.5919 38.0204C36.5039 38.0204 36.4149 38.0014 36.3325 37.9655C36.151 37.8843 36.023 37.7251 35.9884 37.5385L34.7281 30.6004C34.6969 30.4327 34.747 30.2598 34.8628 30.129C34.9786 29.9983 35.1501 29.9224 35.3304 29.9224V29.9213ZM40.059 34.874L36.1532 31.0812H36.0575L37.0451 36.521L40.059 34.874Z" fill="#33597F"/>
</g>
<g opacity="0.97">
<path d="M43.9327 44.5863C43.3927 43.9336 40.8909 43.7607 38.6496 43.7428L36.1745 29.2518C36.1267 28.9713 35.8706 28.7646 35.57 28.7646H24.8535C24.5529 28.7646 24.2968 28.9713 24.2489 29.2518L21.7738 43.7428C19.5326 43.7607 17.0296 43.9336 16.4908 44.5863C15.4698 45.8221 28.4041 46.7932 28.4041 46.7932C28.4041 46.7932 28.9709 49.2606 29.5955 49.2606C30.2201 49.2606 29.5955 45.7145 29.5955 45.7145L25.7632 45.2717H34.6637L30.8313 45.7145C30.8313 45.7145 30.2067 49.2606 30.8313 49.2606C31.456 49.2606 32.0227 46.7932 32.0227 46.7932C32.0227 46.7932 44.957 45.8221 43.936 44.5863H43.9327ZM25.3735 29.9245H35.0478L37.1187 42.0462H23.3025L25.3735 29.9245Z" fill="#33597F"/>
<path d="M37.1188 42.0461H23.3037L24.8602 32.9327L25.3735 29.9234H35.0478L35.5834 33.0572L37.1188 42.0461Z" fill="#457C9D"/>
<path d="M35.5833 33.0572C30.4939 36.1793 25.379 33.2459 24.8601 32.9327L25.3745 29.9234H35.0488L35.5844 33.0572H35.5833Z" fill="#457C9D"/>
</g>
<g opacity="0.97">
<path d="M34.6858 30.6056C33.5936 31.5609 31.9925 32.163 30.2111 32.163C28.4296 32.163 26.8275 31.5609 25.7363 30.6056C25.7486 30.5845 25.7597 30.5634 25.7697 30.5424C25.792 30.5033 25.812 30.4633 25.831 30.4232C25.871 30.3462 25.9067 30.2682 25.939 30.1891C25.9568 30.1459 25.9735 30.1048 25.9913 30.0615C26.0069 30.0204 26.0225 29.9803 26.0369 29.9403C26.0525 29.9002 26.0648 29.8591 26.077 29.819C26.0915 29.7779 26.1026 29.7368 26.1138 29.6967C26.1383 29.6145 26.1583 29.5333 26.175 29.451C26.1828 29.4152 26.1906 29.3793 26.1962 29.3445C26.2195 29.2169 26.2362 29.0883 26.2452 28.9618C26.2518 28.8806 26.2552 28.7994 26.2552 28.7193C26.5714 28.8373 26.9332 28.9164 27.3363 28.9164C27.8885 28.9164 28.5176 28.7688 29.2112 28.3745C29.6778 28.1077 30.0118 27.7566 30.2122 27.3264C30.4126 27.7566 30.7466 28.1077 31.2131 28.3745C31.9068 28.7688 32.5347 28.9164 33.0881 28.9164C33.4912 28.9164 33.853 28.8373 34.1692 28.7193C34.1692 28.8004 34.1726 28.8816 34.1792 28.9618C34.1881 29.0894 34.206 29.218 34.2282 29.3445C34.2338 29.3793 34.2416 29.4152 34.2494 29.451C34.2661 29.5333 34.2861 29.6145 34.3106 29.6967C34.3217 29.7378 34.334 29.779 34.3474 29.819C34.4108 30.0225 34.4932 30.225 34.5934 30.4243C34.6224 30.4854 34.6547 30.5455 34.6881 30.6056H34.6858Z" fill="#EF7668"/>
<path d="M24.2834 30.9357C23.6165 31.659 21.628 33.2564 17.5908 32.4772C12.006 31.4007 12.4513 27.2262 12.4725 27.0501C12.5003 26.8382 12.3745 26.6357 12.1674 26.5535C8.91852 25.2702 9.32714 22.2883 9.7146 20.9207C10.3381 21.353 11.0496 21.4838 11.5172 21.5186C11.653 22.4876 12.2042 24.7905 14.4276 26.4607C16.8259 28.2627 20.3787 28.7467 24.9882 27.9021C25.0361 27.9506 25.094 28.0033 25.1574 28.0592C25.4291 28.9428 25.0951 30.0584 24.2857 30.9357H24.2834Z" fill="#EF7668"/>
<path d="M28.1981 23.1362C28.2204 23.0107 28.295 22.899 28.4041 22.8262C28.462 22.7861 29.7179 21.8878 29.208 19.7874C28.1503 21.1855 26.7574 21.4576 26.6928 21.4702C26.6594 21.4755 26.3688 21.5261 25.9379 21.5261C25.173 21.5261 23.9706 21.369 22.9941 20.5286C21.9197 19.6028 21.4198 18.1171 21.5066 16.1042C19.5025 16.4069 16.3839 16.197 15.5956 13.62C15.5187 13.368 15.6724 13.1044 15.9385 13.0317C16.2046 12.9589 16.4829 13.1044 16.5598 13.3564C17.3937 16.0853 21.884 15.0635 21.9286 15.053C22.0878 15.0161 22.2537 15.053 22.3773 15.1542C22.5009 15.2554 22.5654 15.4052 22.5499 15.5581C22.3528 17.5804 22.7291 19.0155 23.6688 19.8243C24.8279 20.8207 26.4868 20.5381 26.5024 20.5349C26.5514 20.5255 27.8385 20.2566 28.6735 18.8067C30.1154 16.3025 29.0644 12.321 27.8797 9.33589C26.6561 9.26419 25.5249 8.21503 24.9559 7.58976C24.4103 8.24034 23.5553 8.85085 22.2181 9.19881C22.1724 9.21041 22.129 9.21568 22.0845 9.21568C21.864 9.21568 21.6614 9.0765 21.6001 8.86562C21.5266 8.6115 21.6847 8.35 21.952 8.28041C25.4146 7.38098 24.9247 4.4792 24.9025 4.35478C24.8557 4.09645 25.0383 3.84971 25.3111 3.80437C25.585 3.76008 25.8444 3.93301 25.8912 4.19134C25.8978 4.23141 26.066 5.17934 25.6963 6.26751C25.6462 6.41618 25.585 6.57118 25.5082 6.72935C25.9825 7.29768 27.0847 8.38901 28.01 8.38901H28.0367C28.4219 8.37952 28.7559 8.16337 29.0577 7.72789C29.8526 6.57962 30.0297 4.26199 28.9519 2.37246C28.8005 2.10674 28.5611 1.75246 28.2393 1.46354C27.9176 1.17463 27.5145 0.952148 27.0324 0.952148C24.4604 0.952148 23.3003 2.06035 22.2782 3.0378C22.0978 3.21073 21.9275 3.37311 21.7515 3.52917C21.6536 3.61668 21.5222 3.66202 21.3864 3.65675C21.3697 3.65675 19.6216 3.59559 17.8402 4.09645C15.5822 4.73121 14.3218 5.93958 14.0936 7.68993C14.1014 7.97673 14.2216 10.172 16.1879 10.172H16.1968C16.474 10.172 16.6989 10.384 16.6989 10.6455C16.6989 10.908 16.4763 11.1221 16.199 11.1231H16.1868C15.3707 11.1231 14.6893 10.8711 14.1615 10.3724C13.5413 9.78718 13.2808 8.98477 13.1695 8.40378C10.7857 9.72919 10.2312 12.0352 10.5452 13.8467C10.799 15.3187 11.6341 16.448 12.5293 16.5323C12.8043 16.5577 13.0058 16.7907 12.978 17.0522C12.9524 17.2979 12.7341 17.4803 12.4792 17.4803C12.4636 17.4803 12.4458 17.4803 12.4291 17.4782C11.4259 17.3833 10.543 16.6199 10.0041 15.4642C9.66449 16.0652 9.20911 17.2082 9.47521 18.7213C9.8237 20.7047 11.7087 20.5961 11.9225 20.5771C11.9314 20.5771 11.9414 20.5771 11.9503 20.5771C11.9659 20.5771 11.9815 20.574 11.9971 20.575C14.0346 20.672 14.8028 19.8949 14.8351 19.8612C15.0144 19.6619 15.3295 19.6397 15.5399 19.8095C15.7514 19.9793 15.7748 20.2829 15.5956 20.4833C15.5555 20.5276 14.6759 21.4765 12.5348 21.5314C12.6874 22.4266 13.2218 24.3488 15.06 25.7227C17.2646 27.3718 20.6326 27.7736 25.0706 26.9163C25.2643 26.8794 25.4647 26.9532 25.5794 27.1061C25.6106 27.1462 25.7086 27.2664 25.8667 27.4024C25.9068 27.4267 25.9446 27.4573 25.9769 27.4931C26.4724 27.8748 27.4054 28.2892 28.6891 27.5574C29.0721 27.3392 29.2993 27.045 29.3828 26.658C29.6199 25.5688 28.668 24.004 28.2805 23.4916C28.2037 23.3893 28.1714 23.2606 28.1937 23.1352L28.1981 23.1362ZM21.9408 25.7744H21.9297C21.3685 25.7628 20.8708 25.5635 20.4556 25.1892C20.1427 25.2387 19.8465 25.264 19.5693 25.264C18.7342 25.264 18.0651 25.0384 17.5718 24.5882C16.4495 23.5643 16.7513 21.7971 16.7646 21.7222C16.8114 21.4639 17.0697 21.2889 17.3436 21.3331C17.6164 21.3764 17.8012 21.6221 17.7556 21.8814C17.7522 21.8994 17.5318 23.2353 18.2711 23.9059C18.6084 24.2117 19.1184 24.3467 19.7909 24.3077C19.4824 23.7151 19.3811 23.151 19.3767 23.1257C19.331 22.8673 19.517 22.6227 19.7909 22.5795C20.0647 22.5362 20.3219 22.7113 20.3676 22.9707C20.372 22.9939 20.7116 24.798 21.9497 24.8222C22.2281 24.8286 22.4474 25.0458 22.4407 25.3083C22.4352 25.5677 22.2114 25.7733 21.9397 25.7733L21.9408 25.7744Z" fill="#EF7668"/>
<path d="M48.255 26.5535C48.0468 26.6357 47.921 26.8382 47.9499 27.0501C47.9711 27.2262 48.4176 31.4007 42.8316 32.4772C38.7944 33.2564 36.8059 31.659 36.139 30.9357C35.3295 30.0584 34.9944 28.9428 35.2672 28.0592C35.3307 28.0033 35.3874 27.9506 35.4364 27.9021C40.0459 28.7467 43.5988 28.2627 45.997 26.4607C48.2205 24.7905 48.7716 22.4876 48.9074 21.5186C49.3751 21.4838 50.0854 21.353 50.71 20.9207C51.0975 22.2883 51.5061 25.2702 48.2572 26.5535H48.255Z" fill="#EF7668"/>
<path d="M50.4161 15.4642C49.8783 16.6199 48.9954 17.3833 47.9911 17.4782C47.9744 17.4782 47.9566 17.4803 47.941 17.4803C47.686 17.4803 47.4667 17.2979 47.4411 17.0522C47.4132 16.7907 47.6148 16.5577 47.8898 16.5323C48.7849 16.448 49.62 15.3187 49.8738 13.8467C50.1867 12.0352 49.6322 9.72919 47.2496 8.40378C47.1382 8.98371 46.8766 9.78718 46.2575 10.3724C45.7298 10.8711 45.0495 11.1231 44.2323 11.1231H44.22C43.9428 11.1231 43.719 10.908 43.7201 10.6455C43.7201 10.384 43.945 10.172 44.2222 10.172H44.2311C46.1974 10.172 46.3176 7.97779 46.3254 7.68993C46.0972 5.94064 44.8368 4.73121 42.5789 4.09645C40.7974 3.59559 39.0505 3.65675 39.0327 3.65675C38.8968 3.66202 38.7666 3.61668 38.6686 3.52917C38.4927 3.37416 38.3234 3.21178 38.142 3.0378C37.1187 2.06035 35.9586 0.952148 33.3877 0.952148C32.9068 0.952148 32.5026 1.17463 32.1819 1.46354C31.8602 1.75246 31.6219 2.1078 31.4694 2.37246C30.3916 4.26199 30.5697 6.57962 31.3636 7.72789C31.6653 8.16337 31.9982 8.37952 32.3846 8.38901H32.4113C33.3376 8.38901 34.4388 7.29768 34.9131 6.72935C34.8363 6.57118 34.775 6.41618 34.7249 6.26751C34.3553 5.1804 34.5234 4.23141 34.5301 4.19134C34.5769 3.93301 34.8363 3.76008 35.1102 3.80437C35.383 3.84866 35.5667 4.09539 35.5188 4.35478C35.4965 4.47815 35.0066 7.38098 38.4693 8.28041C38.7365 8.35 38.8946 8.6115 38.8211 8.86561C38.7599 9.0765 38.5573 9.21568 38.3368 9.21568C38.2923 9.21568 38.2477 9.21041 38.2032 9.19881C36.866 8.85191 36.0109 8.24034 35.4654 7.58976C34.8964 8.21503 33.7641 9.26419 32.5416 9.33589C31.3569 12.321 30.307 16.3025 31.7477 18.8067C32.5828 20.2566 33.8698 20.5255 33.9188 20.5349C33.9355 20.5381 35.5934 20.8207 36.7524 19.8243C37.6922 19.0155 38.0685 17.5804 37.8714 15.5581C37.8558 15.4052 37.9204 15.2544 38.044 15.1542C38.1676 15.054 38.3346 15.0161 38.4927 15.053C38.5383 15.0635 43.0287 16.0842 43.8615 13.3564C43.9383 13.1044 44.2167 12.9589 44.4828 13.0317C44.7489 13.1044 44.9025 13.368 44.8257 13.62C44.0385 16.197 40.9188 16.4069 38.9147 16.1042C39.0015 18.1171 38.5016 19.6028 37.4272 20.5286C36.4507 21.369 35.2471 21.5261 34.4833 21.5261C34.0524 21.5261 33.7607 21.4755 33.7284 21.4702C33.6639 21.4576 32.271 21.1855 31.2133 19.7874C30.7033 21.8867 31.9581 22.7861 32.0172 22.8262C32.1263 22.9 32.2009 23.0107 32.2231 23.1362C32.2465 23.2617 32.2142 23.3903 32.1363 23.4926C31.7499 24.004 30.7969 25.5698 31.034 26.659C31.1186 27.045 31.3458 27.3402 31.7288 27.5585C33.0125 28.2913 33.9456 27.8759 34.441 27.4942C34.4733 27.4583 34.5112 27.4288 34.5512 27.4035C34.7094 27.2664 34.8073 27.1462 34.8385 27.1072C34.9543 26.9543 35.1536 26.8794 35.3473 26.9174C39.7853 27.7757 43.1534 27.374 45.3579 25.7238C47.1961 24.3499 47.7306 22.4276 47.8831 21.5324C45.7409 21.4776 44.8624 20.5276 44.8224 20.4843C44.642 20.284 44.6654 19.9814 44.878 19.8106C45.0885 19.6408 45.4036 19.6619 45.5828 19.8622C45.6151 19.896 46.3833 20.6731 48.4209 20.5761C48.4364 20.5761 48.4509 20.5782 48.4665 20.5782C48.4754 20.5782 48.4854 20.5782 48.4943 20.5782C48.707 20.5972 50.5931 20.7058 50.9416 18.7224C51.2077 17.2093 50.7523 16.0663 50.4127 15.4653L50.4161 15.4642ZM42.8494 24.5892C42.3562 25.0395 41.687 25.2651 40.852 25.2651C40.5747 25.2651 40.2786 25.2398 39.9657 25.1902C39.5504 25.5646 39.0538 25.7638 38.4916 25.7754H38.4804C38.2088 25.7754 37.9839 25.5698 37.9794 25.3104C37.9738 25.0479 38.1921 24.8307 38.4704 24.8243C39.7085 24.8001 40.047 22.996 40.0526 22.9728C40.0982 22.7134 40.3554 22.5384 40.6293 22.5816C40.9032 22.6248 41.088 22.8684 41.0435 23.1278C41.039 23.152 40.9377 23.7161 40.6293 24.3098C41.3018 24.3488 41.8117 24.2149 42.1491 23.9081C42.8884 23.2374 42.6679 21.9015 42.6646 21.8836C42.6189 21.6252 42.8038 21.3795 43.0765 21.3353C43.3493 21.291 43.6088 21.466 43.6555 21.7243C43.67 21.7992 43.9706 23.5664 42.8494 24.5903V24.5892Z" fill="#EF7668"/>
<path d="M21.9509 24.8233C22.2292 24.8296 22.4486 25.0468 22.4419 25.3094C22.4374 25.5688 22.2125 25.7744 21.9409 25.7744H21.9297C21.3686 25.7628 20.8709 25.5635 20.4556 25.1892C20.1427 25.2387 19.8466 25.264 19.5693 25.264C18.7343 25.264 18.0651 25.0384 17.5719 24.5882C16.4496 23.5643 16.7513 21.7971 16.7647 21.7222C16.8114 21.4639 17.0697 21.2889 17.3436 21.3331C17.6164 21.3764 17.8001 21.6221 17.7556 21.8814C17.7523 21.8994 17.5318 23.2353 18.2711 23.9059C18.6085 24.2117 19.1184 24.3467 19.7909 24.3077C19.4825 23.7151 19.3812 23.151 19.3767 23.1257C19.3311 22.8673 19.517 22.6227 19.7909 22.5795C20.0648 22.5362 20.322 22.7113 20.3676 22.9707C20.3721 22.9939 20.7117 24.798 21.9498 24.8222L21.9509 24.8233Z" fill="#EF564B"/>
<path d="M38.4713 24.8233C38.193 24.8296 37.9748 25.0468 37.9803 25.3094C37.9848 25.5688 38.2097 25.7744 38.4814 25.7744H38.4925C39.0536 25.7628 39.5513 25.5635 39.9666 25.1892C40.2795 25.2387 40.5757 25.264 40.8529 25.264C41.6879 25.264 42.3571 25.0384 42.8503 24.5882C43.9726 23.5643 43.6709 21.7971 43.6564 21.7222C43.6097 21.4639 43.3514 21.2889 43.0775 21.3331C42.8047 21.3764 42.621 21.6221 42.6655 21.8814C42.6688 21.8994 42.8893 23.2353 42.15 23.9059C41.8126 24.2117 41.3016 24.3467 40.6302 24.3077C40.9386 23.7151 41.0399 23.151 41.0444 23.1257C41.0901 22.8673 40.9041 22.6227 40.6302 22.5795C40.3563 22.5362 40.0991 22.7113 40.0535 22.9707C40.049 22.9939 39.7106 24.798 38.4713 24.8222V24.8233Z" fill="#EF564B"/>
<path d="M51.9346 18.8774C52.4067 16.196 50.9404 14.4625 50.878 14.3898C50.8546 14.3634 50.829 14.3391 50.8012 14.3191C50.8257 14.2137 50.8468 14.1082 50.8658 13.9996C51.2377 11.8507 50.5106 8.85296 47.2862 7.33986C46.9299 5.32485 45.3979 3.88872 42.8393 3.17593C41.2649 2.73729 39.7618 2.70039 39.2074 2.70144C39.0927 2.596 38.9758 2.48423 38.8533 2.36824C38.3022 1.83997 37.682 1.24844 36.8269 0.788711C35.9718 0.327926 34.8807 0 33.3854 0C32.2854 0 31.29 0.682214 30.5841 1.92116C30.4449 2.16368 30.3202 2.4294 30.2089 2.71093C30.0987 2.4294 29.9728 2.16368 29.8337 1.92116C29.1278 0.682214 28.1324 0 27.0324 0C25.5371 0 24.4459 0.327926 23.5908 0.788711C22.7358 1.24844 22.1167 1.83997 21.5645 2.36824C21.4431 2.48423 21.3251 2.596 21.2104 2.70144C20.657 2.70144 19.1528 2.73729 17.5785 3.17593C15.0199 3.88872 13.4879 5.32485 13.1316 7.33986C9.90717 8.85191 9.18123 11.8496 9.55199 13.9996C9.57092 14.1082 9.59207 14.2137 9.61657 14.3191C9.58985 14.3391 9.56313 14.3634 9.53974 14.3898C9.47739 14.4625 8.01105 16.1949 8.48313 18.8774C8.56997 19.3688 8.72696 19.7694 8.9296 20.0963C8.76036 20.5581 8.43303 21.6147 8.45752 22.8241C8.49872 24.8845 9.53084 26.4229 11.4515 27.2938C11.4459 27.7831 11.5082 28.7099 11.9681 29.7137C13.0659 32.1168 15.5209 33.051 17.387 33.4105C18.2165 33.5708 18.9725 33.6394 19.6572 33.6394C22.7335 33.6394 24.3981 32.257 25.0371 31.5632C25.0628 31.5358 25.0872 31.5084 25.1129 31.4799C26.3988 32.5459 28.2081 33.2113 30.2089 33.2113C32.2097 33.2113 34.0189 32.5459 35.3049 31.4799C35.2971 31.4715 35.2893 31.462 35.2826 31.4535C35.3149 31.4904 35.3472 31.5273 35.3806 31.5632C36.0208 32.257 37.6854 33.6394 40.7606 33.6394C41.4453 33.6394 42.2013 33.5708 43.0308 33.4105C44.8957 33.051 47.3508 32.1168 48.4497 29.7137C48.9084 28.7099 48.9719 27.782 48.9663 27.2938C50.8858 26.4229 51.9191 24.8855 51.9603 22.8241C51.9847 21.6147 51.6574 20.5581 51.4882 20.0963C51.6897 19.7705 51.8478 19.3698 51.9335 18.8774H51.9346ZM30.2111 27.3255C30.4115 27.7557 30.7455 28.1068 31.2121 28.3735C31.9057 28.7679 32.5337 28.9155 33.087 28.9155C33.4901 28.9155 33.8519 28.8364 34.1681 28.7183C34.1681 28.7995 34.1715 28.8807 34.1782 28.9609C34.1871 29.0884 34.2049 29.2171 34.2271 29.3436C34.2338 29.3795 34.2416 29.4153 34.2483 29.4501C34.2661 29.5324 34.2862 29.6136 34.3095 29.6958C34.3218 29.7369 34.334 29.778 34.3463 29.8181C34.412 30.0206 34.4932 30.223 34.5923 30.4234C34.6324 30.5024 34.6747 30.5815 34.7204 30.6606C34.7148 30.6522 34.7092 30.6427 34.7037 30.6332C34.6992 30.6237 34.6925 30.6142 34.687 30.6058C33.5947 31.5611 31.9937 32.1632 30.2122 32.1632C28.4308 32.1632 26.8286 31.5611 25.7375 30.6058C25.7275 30.6237 25.7152 30.6416 25.7052 30.6606C25.7275 30.6216 25.7497 30.5815 25.7709 30.5425C25.792 30.5024 25.8132 30.4624 25.8321 30.4234C25.8711 30.3453 25.9078 30.2673 25.9401 30.1893C25.9579 30.146 25.9746 30.1049 25.9924 30.0617C26.008 30.0206 26.0225 29.9794 26.0381 29.9404C26.0526 29.8993 26.0648 29.8582 26.0782 29.8192C26.0915 29.778 26.1038 29.7369 26.1149 29.6969C26.1383 29.6146 26.1583 29.5334 26.1762 29.4512C26.1828 29.4164 26.1906 29.3805 26.1973 29.3447C26.2207 29.2171 26.2374 29.0885 26.2463 28.9619C26.253 28.8807 26.2563 28.7995 26.2563 28.7194C26.5725 28.8375 26.9344 28.9166 27.3374 28.9166C27.8897 28.9166 28.5187 28.769 29.2124 28.3746C29.6789 28.1078 30.0129 27.7567 30.2133 27.3265L30.2111 27.3255ZM10.0063 15.4642C10.5451 16.6199 11.4281 17.3833 12.4312 17.4782C12.4479 17.4782 12.4658 17.4803 12.4813 17.4803C12.7363 17.4803 12.9557 17.2979 12.9801 17.0522C13.008 16.7907 12.8065 16.5576 12.5314 16.5323C11.6363 16.448 10.8012 15.3187 10.5474 13.8467C10.2345 12.0352 10.7879 9.72919 13.1717 8.40378C13.283 8.98371 13.5446 9.78718 14.1637 10.3724C14.6914 10.8711 15.3717 11.1231 16.189 11.1231H16.2012C16.4784 11.1231 16.7022 10.908 16.7011 10.6455C16.7011 10.384 16.4762 10.172 16.199 10.172H16.1901C14.2238 10.172 14.1036 7.97779 14.0958 7.68993C14.324 5.94064 15.5844 4.73121 17.8424 4.09644C19.6238 3.59559 21.3707 3.65675 21.3885 3.65675C21.5244 3.66202 21.6546 3.61668 21.7537 3.52916C21.9297 3.37416 22.0989 3.21178 22.2804 3.0378C23.3036 2.06035 24.4637 0.952147 27.0346 0.952147C27.5156 0.952147 27.9197 1.17463 28.2415 1.46354C28.5633 1.75246 28.8015 2.1078 28.9541 2.37246C30.0319 4.26199 29.8537 6.57962 29.0599 7.72789C28.7581 8.16337 28.4252 8.37952 28.0389 8.38901H28.0121C27.0858 8.38901 25.9835 7.29768 25.5103 6.72935C25.5872 6.57118 25.6484 6.41618 25.6985 6.26751C26.0682 5.18039 25.9 4.23141 25.8934 4.19134C25.8466 3.93301 25.5872 3.76008 25.3133 3.80437C25.0405 3.84865 24.8568 4.09539 24.9047 4.35478C24.9269 4.47815 25.4168 7.38098 21.9541 8.28041C21.6869 8.35 21.5288 8.6115 21.6023 8.86561C21.6635 9.0765 21.8662 9.21568 22.0866 9.21568C22.1312 9.21568 22.1746 9.21041 22.2202 9.19881C23.5574 8.85191 24.4125 8.24034 24.9581 7.58976C25.5282 8.21503 26.6583 9.26419 27.8819 9.33589C29.0665 12.321 30.1165 16.3025 28.6757 18.8067C27.8407 20.2566 26.5536 20.5255 26.5046 20.5349C26.489 20.5381 24.8301 20.8207 23.671 19.8243C22.7313 19.0155 22.355 17.5804 22.552 15.5581C22.5676 15.4052 22.503 15.2544 22.3795 15.1542C22.2559 15.054 22.0889 15.0161 21.9308 15.053C21.8851 15.0635 17.3959 16.0842 16.562 13.3564C16.4851 13.1044 16.2068 12.9589 15.9407 13.0317C15.6746 13.1044 15.5209 13.368 15.5977 13.62C16.3849 16.197 19.5047 16.4069 21.5088 16.1042C21.4219 18.1171 21.9219 19.6028 22.9963 20.5286C23.9727 21.369 25.1763 21.5261 25.9401 21.5261C26.371 21.5261 26.6627 21.4755 26.695 21.4702C26.7596 21.4576 28.1524 21.1855 29.2102 19.7874C29.7201 21.8867 28.4653 22.7861 28.4063 22.8262C28.2972 22.9 28.2226 23.0107 28.2003 23.1362C28.1769 23.2617 28.2092 23.3903 28.2872 23.4926C28.6735 24.004 29.6266 25.5698 29.3894 26.6591C29.3048 27.045 29.0777 27.3402 28.6958 27.5585C27.412 28.2913 26.479 27.8759 25.9835 27.4942C25.9512 27.4583 25.9134 27.4288 25.8733 27.4035C25.7141 27.2664 25.6172 27.1462 25.5861 27.1072C25.4703 26.9543 25.271 26.8794 25.0772 26.9174C20.6392 27.7757 17.2712 27.374 15.0667 25.7238C13.2284 24.3499 12.694 22.4276 12.5415 21.5324C14.6836 21.4776 15.5621 20.5276 15.6022 20.4843C15.7826 20.284 15.7592 19.9814 15.5465 19.8106C15.335 19.6408 15.021 19.6619 14.8418 19.8622C14.8095 19.896 14.0412 20.6731 12.0037 20.5761C11.9881 20.5761 11.9736 20.5782 11.9569 20.5782C11.948 20.5782 11.938 20.5782 11.9291 20.5782C11.7164 20.5972 9.83034 20.7058 9.48185 18.7224C9.21574 17.2093 9.67113 16.0663 10.0107 15.4653L10.0063 15.4642ZM24.2834 30.9369C23.6164 31.6602 21.6279 33.2577 17.5907 32.4784C12.0059 31.4019 12.4513 27.2274 12.4724 27.0513C12.5003 26.8394 12.3745 26.6369 12.1674 26.5547C8.91847 25.2714 9.32709 22.2895 9.71455 20.9219C10.3381 21.3542 11.0495 21.485 11.5171 21.5198C11.653 22.4888 12.2041 24.7917 14.4276 26.4619C16.8258 28.2639 20.3787 28.7479 24.9882 27.9033C25.036 27.9518 25.0939 28.0045 25.1574 28.0604C25.4291 28.944 25.095 30.0596 24.2856 30.9369H24.2834ZM48.256 26.5547C48.0478 26.6369 47.922 26.8394 47.9509 27.0513C47.9721 27.2274 48.4185 31.4019 42.8326 32.4784C38.7954 33.2577 36.8069 31.6602 36.14 30.9369C35.3305 30.0596 34.9954 28.944 35.2682 28.0604C35.3316 28.0045 35.3884 27.9518 35.4374 27.9033C40.0469 28.7479 43.5997 28.2639 45.998 26.4619C48.2215 24.7917 48.7726 22.4888 48.9084 21.5198C49.376 21.485 50.0864 21.3542 50.711 20.9219C51.0985 22.2895 51.5071 25.2714 48.2582 26.5547H48.256ZM50.9448 18.7224C50.5963 20.7058 48.7102 20.5972 48.4976 20.5782C48.4887 20.5782 48.4786 20.5782 48.4697 20.5782C48.4542 20.5782 48.4386 20.575 48.4241 20.5761C46.3866 20.6731 45.6183 19.896 45.586 19.8622C45.4057 19.6629 45.0917 19.6408 44.8813 19.8106C44.6697 19.9803 44.6463 20.284 44.8256 20.4843C44.8657 20.5286 45.7441 21.4776 47.8863 21.5324C47.7338 22.4276 47.1994 24.3499 45.3611 25.7238C43.1566 27.3729 39.7875 27.7746 35.3506 26.9174C35.1568 26.8805 34.9564 26.9543 34.8417 27.1072C34.8106 27.1473 34.7126 27.2675 34.5545 27.4035C34.5144 27.4277 34.4765 27.4583 34.4443 27.4942C33.9488 27.8759 33.0158 28.2903 31.732 27.5585C31.349 27.3402 31.1219 27.046 31.0373 26.6591C30.8001 25.5698 31.7521 24.0051 32.1395 23.4926C32.2175 23.3903 32.2486 23.2617 32.2264 23.1362C32.2041 23.0107 32.1295 22.899 32.0204 22.8262C31.9625 22.7861 30.7066 21.8878 31.2165 19.7874C32.2742 21.1855 33.6671 21.4576 33.7317 21.4702C33.7651 21.4755 34.0557 21.5261 34.4866 21.5261C35.2515 21.5261 36.4539 21.369 37.4304 20.5286C38.5048 19.6028 39.0047 18.1171 38.9179 16.1042C40.922 16.4069 44.0406 16.197 44.8289 13.62C44.9069 13.368 44.7521 13.1044 44.486 13.0317C44.2199 12.9589 43.9416 13.1044 43.8647 13.3564C43.0308 16.0853 38.5405 15.0635 38.4959 15.053C38.3367 15.0161 38.1708 15.053 38.0472 15.1542C37.9236 15.2554 37.859 15.4052 37.8746 15.5581C38.0717 17.5804 37.6954 19.0155 36.7557 19.8243C35.5966 20.8207 33.9377 20.5381 33.9221 20.5349C33.8731 20.5255 32.586 20.2566 31.7509 18.8067C30.3091 16.3025 31.3601 12.321 32.5448 9.33589C33.7684 9.26419 34.8996 8.21503 35.4686 7.58976C36.0141 8.24034 36.8692 8.85085 38.2064 9.19881C38.251 9.21041 38.2955 9.21568 38.34 9.21568C38.5605 9.21568 38.7631 9.0765 38.8244 8.86561C38.8979 8.6115 38.7397 8.35 38.4725 8.28041C35.0099 7.38098 35.4998 4.4792 35.522 4.35478C35.5699 4.09645 35.3862 3.84971 35.1134 3.80437C34.8395 3.76008 34.5801 3.93301 34.5333 4.19134C34.5266 4.23141 34.3585 5.17934 34.7282 6.26751C34.7783 6.41618 34.8395 6.57118 34.9163 6.72935C34.442 7.29768 33.3398 8.38901 32.4145 8.38901H32.3878C32.0026 8.37952 31.6686 8.16337 31.3668 7.72789C30.5719 6.57962 30.3948 4.26199 31.4726 2.37246C31.624 2.10674 31.8634 1.75246 32.1852 1.46354C32.5069 1.17463 32.91 0.952147 33.391 0.952147C35.9629 0.952147 37.1231 2.06035 38.1452 3.0378C38.3256 3.21073 38.4959 3.37311 38.6718 3.52916C38.7698 3.61668 38.9012 3.66202 39.0359 3.65675C39.0526 3.65675 40.8007 3.59559 42.5821 4.09644C44.8401 4.73121 46.1004 5.93958 46.3287 7.68993C46.3209 7.97673 46.2006 10.172 44.2344 10.172H44.2255C43.9482 10.172 43.7233 10.384 43.7233 10.6455C43.7233 10.908 43.946 11.1221 44.2232 11.1231H44.2355C45.0527 11.1231 45.733 10.8711 46.2608 10.3724C46.8809 9.78718 47.1415 8.98476 47.2528 8.40378C49.6366 9.72919 50.1911 12.0352 49.8771 13.8467C49.6232 15.3187 48.7882 16.448 47.893 16.5323C47.618 16.5576 47.4154 16.7907 47.4443 17.0522C47.4699 17.2979 47.6881 17.4803 47.9442 17.4803C47.9598 17.4803 47.9776 17.4803 47.9943 17.4782C48.9975 17.3833 49.8804 16.6199 50.4193 15.4642C50.7589 16.0652 51.2143 17.2082 50.9482 18.7213L50.9448 18.7224Z" fill="#EF564B"/>
</g>
<g opacity="0.97">
<path d="M35.0732 27.7324C35.0732 28.382 34.7503 28.9862 34.2014 29.4796C33.7004 29.933 33.0101 30.2979 32.2018 30.5256C31.595 30.6975 30.9202 30.7945 30.2099 30.7945C29.4996 30.7945 28.8248 30.6985 28.2158 30.5256C27.4075 30.2968 26.7172 29.933 26.2161 29.4796C25.6683 28.984 25.3455 28.3809 25.3455 27.7324C25.3455 26.4988 26.5023 27.0629 28.169 27.4604C28.7903 27.607 29.4817 27.7324 30.2099 27.7324C30.9381 27.7324 31.6284 27.607 32.2485 27.4604C33.9153 27.0629 35.0732 26.4988 35.0732 27.7324Z" fill="#33597F"/>
</g>
<path opacity="0.97" d="M32.203 30.2937C31.5962 30.4666 30.9215 30.5626 30.2111 30.5626C29.5008 30.5626 28.8261 30.4666 28.217 30.2937C28.3551 29.369 29.1946 28.6572 30.21 28.6572C31.2254 28.6572 32.0649 29.369 32.203 30.2937Z" fill="#EF564B"/>
<g opacity="0.97">
<path d="M27.1826 22.7165C27.1826 22.7165 27.1882 22.7555 27.1993 22.8293C27.2038 22.8662 27.2105 22.9115 27.2172 22.9643C27.2205 22.9917 27.2249 23.0191 27.2272 23.0507C27.2272 23.0855 27.2272 23.1224 27.2261 23.1604C27.2249 23.2384 27.2238 23.327 27.2183 23.4219C27.2082 23.5126 27.1915 23.6106 27.176 23.7171C27.1581 23.8226 27.1236 23.9312 27.0947 24.0493C27.0624 24.1663 27.0078 24.2823 26.96 24.4088C26.9009 24.5301 26.8364 24.6556 26.7595 24.7821C26.676 24.9033 26.5959 25.0352 26.489 25.1532C26.2908 25.4021 26.0314 25.6277 25.7397 25.8302C25.664 25.8776 25.5883 25.9272 25.5103 25.9736C25.4324 26.02 25.3478 26.0569 25.2643 26.0991L25.1384 26.1602L25.0071 26.2108C24.918 26.2425 24.83 26.2783 24.7376 26.3057C24.5528 26.3542 24.3669 26.4091 24.1731 26.4302C24.0774 26.4449 23.9805 26.4607 23.8825 26.4628L23.7367 26.4702L23.6632 26.4744L23.6264 26.4766H23.5942C23.5786 26.4776 23.6231 26.4787 23.5574 26.4766L23.3114 26.4628L23.2501 26.4597C23.2301 26.4597 23.21 26.4576 23.1811 26.4534L23.0252 26.4323C22.9239 26.4154 22.8114 26.4059 22.7212 26.3785C22.6277 26.3542 22.5353 26.33 22.4418 26.3057C22.3505 26.2783 22.2614 26.2425 22.1735 26.2108L22.0421 26.1602L21.9163 26.0991C21.8339 26.0569 21.7481 26.02 21.6702 25.9736C21.5923 25.9261 21.5166 25.8776 21.4408 25.8302C21.1491 25.6277 20.8897 25.4021 20.6915 25.1532C20.5858 25.0352 20.5045 24.9033 20.421 24.7821C20.3453 24.6566 20.2796 24.5301 20.2206 24.4088C20.1727 24.2823 20.1181 24.1663 20.0858 24.0493C20.0558 23.9312 20.0224 23.8215 20.0046 23.7171C19.989 23.6106 19.9723 23.5136 19.9622 23.4219C19.9578 23.3301 19.9578 23.2458 19.9567 23.1709C19.9567 23.133 19.9567 23.0982 19.9556 23.0644C19.9578 23.0307 19.9622 23.0001 19.9645 22.9706C19.9712 22.9126 19.9767 22.8641 19.9812 22.824C19.9923 22.7449 19.9979 22.7038 19.9979 22.7038C20.0157 22.5762 20.1382 22.4866 20.2729 22.5024C20.3753 22.5151 20.4544 22.5857 20.4789 22.6743L20.4867 22.7038C20.4867 22.7038 20.4967 22.7397 20.5145 22.8071C20.5345 22.8736 20.5501 22.9716 20.5947 23.0897C20.6147 23.1488 20.6381 23.2131 20.6626 23.2837C20.696 23.3523 20.726 23.4261 20.7606 23.5031C20.7962 23.58 20.8463 23.657 20.8908 23.7403C20.9387 23.8215 20.9988 23.9016 21.0534 23.9871C21.118 24.0672 21.1814 24.1526 21.256 24.2338C21.3362 24.3108 21.4052 24.3993 21.4976 24.471C21.6657 24.6313 21.8728 24.7642 22.0888 24.8886C22.3082 25.0109 22.5531 25.0984 22.8025 25.1701C22.866 25.1838 22.9306 25.1975 22.9951 25.2112C23.0285 25.2197 23.0586 25.2239 23.0864 25.226L23.1733 25.2376L23.2601 25.2513C23.2724 25.2545 23.2924 25.2555 23.3136 25.2555L23.3748 25.2576L23.6209 25.2682C23.5574 25.2671 23.6053 25.2682 23.5919 25.2682H23.6142L23.6387 25.2661L23.6888 25.264L23.789 25.2597C23.8558 25.2597 23.9215 25.2492 23.9872 25.2397C24.0518 25.2281 24.1197 25.2281 24.1831 25.2102C24.2477 25.1965 24.3112 25.1828 24.3758 25.1691C24.6263 25.0974 24.8712 25.0098 25.0894 24.8875C25.3054 24.7631 25.5125 24.6303 25.6807 24.47C25.7731 24.3983 25.8432 24.3097 25.9223 24.2327C25.9958 24.1515 26.0592 24.0661 26.1249 23.986C26.1795 23.9006 26.2407 23.8205 26.2875 23.7393C26.332 23.657 26.3821 23.58 26.4177 23.502C26.4522 23.424 26.4812 23.3502 26.5146 23.2827C26.5391 23.2163 26.5614 23.1541 26.5814 23.0992C26.5914 23.0708 26.6014 23.0433 26.6104 23.018C26.6181 22.9896 26.6248 22.96 26.6315 22.9347C26.6438 22.882 26.6549 22.8377 26.6638 22.8019C26.6827 22.7291 26.6927 22.6912 26.6927 22.6912C26.725 22.5646 26.8609 22.4866 26.9945 22.5182C27.0969 22.5414 27.1682 22.6226 27.1826 22.7154V22.7165Z" fill="#33597F"/>
<path d="M40.4422 22.7165C40.4422 22.7165 40.4478 22.7555 40.4589 22.8293C40.4633 22.8662 40.4689 22.9115 40.4767 22.9643C40.48 22.9917 40.4845 23.0191 40.4867 23.0507C40.4867 23.0855 40.4867 23.1224 40.4856 23.1604C40.4834 23.2384 40.4834 23.327 40.4778 23.4219C40.4678 23.5126 40.4511 23.6106 40.4355 23.7171C40.4166 23.8226 40.3832 23.9312 40.3531 24.0493C40.3208 24.1663 40.2663 24.2823 40.2184 24.4088C40.1594 24.5301 40.0948 24.6556 40.018 24.7821C39.9356 24.9033 39.8543 25.0352 39.7474 25.1532C39.5492 25.4021 39.2898 25.6277 38.9981 25.8302C38.9224 25.8776 38.8467 25.9272 38.7688 25.9736C38.6908 26.02 38.6062 26.0569 38.5227 26.0991L38.3969 26.1602L38.2655 26.2108C38.1764 26.2425 38.0885 26.2783 37.9972 26.3057C37.8123 26.3542 37.6264 26.4091 37.4316 26.4302C37.3358 26.4449 37.2389 26.4607 37.141 26.4628L36.9951 26.4702L36.9216 26.4744L36.8849 26.4766H36.8526C36.837 26.4776 36.8815 26.4787 36.8159 26.4766L36.5698 26.4628L36.5086 26.4597C36.4885 26.4597 36.4685 26.4576 36.4395 26.4534L36.2836 26.4323C36.1823 26.4154 36.0699 26.4059 35.9797 26.3785C35.8862 26.3542 35.7937 26.33 35.7002 26.3057C35.6089 26.2783 35.5199 26.2425 35.4308 26.2108L35.2994 26.1602L35.1736 26.0991C35.0912 26.0569 35.0066 26.02 34.9275 25.9736C34.8496 25.9261 34.7739 25.8776 34.6982 25.8302C34.4065 25.6277 34.147 25.4021 33.9488 25.1532C33.8431 25.0352 33.7618 24.9033 33.6783 24.7821C33.6026 24.6566 33.5369 24.5301 33.4779 24.4088C33.43 24.2823 33.3754 24.1663 33.3432 24.0493C33.3131 23.9312 33.2797 23.8215 33.2619 23.7171C33.2463 23.6106 33.2296 23.5136 33.2196 23.4219C33.2151 23.3301 33.2151 23.2458 33.214 23.1709C33.214 23.133 33.214 23.0982 33.2129 23.0644C33.2151 23.0307 33.2196 23.0001 33.2229 22.9706C33.2296 22.9126 33.2352 22.8641 33.2396 22.824C33.2507 22.7449 33.2563 22.7038 33.2563 22.7038C33.2741 22.5762 33.3966 22.4866 33.5313 22.5024C33.6338 22.5151 33.7128 22.5857 33.7373 22.6743L33.7451 22.7038C33.7451 22.7038 33.7551 22.7397 33.7729 22.8071C33.793 22.8736 33.8086 22.9716 33.8531 23.0897C33.8731 23.1488 33.8965 23.2131 33.921 23.2837C33.9544 23.3523 33.9845 23.4261 34.019 23.5031C34.0546 23.58 34.1047 23.657 34.1481 23.7403C34.196 23.8215 34.2561 23.9016 34.3107 23.9871C34.3753 24.0672 34.4399 24.1526 34.5133 24.2338C34.5924 24.3108 34.6625 24.3993 34.7549 24.471C34.9231 24.6313 35.1302 24.7642 35.3462 24.8886C35.5655 25.0109 35.8105 25.0984 36.0599 25.1701C36.1233 25.1838 36.1879 25.1975 36.2525 25.2112C36.2859 25.2197 36.3159 25.2239 36.3438 25.226L36.4306 25.2376L36.5175 25.2513C36.5297 25.2545 36.5497 25.2555 36.5709 25.2555L36.6321 25.2576L36.8782 25.2682C36.8147 25.2671 36.8626 25.2682 36.8493 25.2682H36.8715L36.896 25.2661L36.9461 25.264L37.0463 25.2597C37.1131 25.2597 37.1788 25.2492 37.2445 25.2397C37.3091 25.2281 37.377 25.2281 37.4405 25.2102C37.505 25.1965 37.5696 25.1828 37.6331 25.1691C37.8836 25.0974 38.1285 25.0098 38.3479 24.8875C38.5639 24.7631 38.771 24.6303 38.9391 24.47C39.0315 24.3983 39.1017 24.3097 39.1807 24.2327C39.2542 24.1515 39.3177 24.0661 39.3833 23.986C39.439 23.9006 39.4991 23.8205 39.5459 23.7393C39.5904 23.657 39.6405 23.58 39.6751 23.502C39.7096 23.424 39.7396 23.3502 39.7719 23.2827C39.7964 23.2163 39.8187 23.1541 39.8387 23.0992C39.8487 23.0708 39.8588 23.0433 39.8688 23.018C39.8766 22.9896 39.8833 22.96 39.8888 22.9347C39.9011 22.882 39.9122 22.8377 39.9211 22.8019C39.94 22.7291 39.9501 22.6912 39.9501 22.6912C39.9824 22.5646 40.1171 22.4866 40.2518 22.5182C40.3542 22.5414 40.4255 22.6226 40.44 22.7154L40.4422 22.7165Z" fill="#33597F"/>
</g>
<g opacity="0.97">
<path d="M21.2281 14.4013C21.188 14.4013 21.1479 14.3971 21.1078 14.3887C20.8105 14.3265 20.6235 14.0471 20.6903 13.7655C20.7003 13.7244 21.7046 9.67857 26.4054 9.22306C26.7093 9.19353 26.9788 9.40231 27.0099 9.68911C27.0411 9.97592 26.8207 10.2321 26.5178 10.2617C22.5987 10.6423 21.7736 13.9595 21.7658 13.9933C21.7091 14.2369 21.4808 14.4013 21.2281 14.4013Z" fill="#33597F"/>
<path d="M39.1926 14.4013C38.941 14.4013 38.7139 14.2369 38.656 13.9943C38.6226 13.8562 37.7987 10.6392 33.904 10.2617C33.6011 10.2321 33.3807 9.97592 33.4119 9.68911C33.443 9.40231 33.7147 9.19353 34.0164 9.22306C38.7172 9.67962 39.7226 13.7255 39.7315 13.7655C39.7972 14.0471 39.6102 14.3254 39.314 14.3887C39.2739 14.3971 39.2338 14.4013 39.1938 14.4013H39.1926Z" fill="#33597F"/>
</g>
</svg>
