<svg width="48" height="48" viewBox="0 0 48 48" fill="none" xmlns="http://www.w3.org/2000/svg">
<g style="mix-blend-mode:multiply">
<path d="M38.9834 47.0484C38.9834 47.574 32.3511 48 24.1689 48C15.9868 48 9.35449 47.574 9.35449 47.0484C9.35449 46.5229 15.9877 46.0969 24.1689 46.0969C32.3502 46.0969 38.9834 46.5229 38.9834 47.0484Z" fill="#D1D3D4"/>
</g>
<path opacity="0.97" d="M16.2539 28.4264C16.2325 28.4669 14.0636 32.4974 9.47282 31.9778C7.62279 31.7686 6.25376 30.7943 5.40401 29.0827C4.91233 28.0924 4.73419 27.1181 4.67273 26.6626C5.22765 26.3851 5.84848 25.8014 6.18784 24.5807C6.82114 22.3023 4.36009 22.6642 4.13741 23.4715C4.12227 23.1982 3.94234 22.8152 3.35892 22.9856C2.53857 23.2252 2.37467 24.164 2.51719 25.0472C2.51719 25.0472 1.74672 24.3496 2.36042 23.3365C2.97413 22.3234 3.14604 21.9261 2.76214 21.6613C2.32747 21.361 0.434688 23.0126 1.76186 25.1071C1.76186 25.1071 0.804336 24.4854 1.06086 23.2969C1.31739 22.1083 1.34768 21.7017 0.922802 21.5971C0.262779 21.4343 -1.60506 26.1405 3.11932 26.8524C3.19325 27.4108 3.40167 28.5159 3.96372 29.6673C5.03971 31.8706 6.88082 33.179 9.28844 33.4523C9.62424 33.4902 9.95737 33.5088 10.286 33.5088C12.2617 33.5088 14.0965 32.8264 15.641 31.5071C16.9816 30.3624 17.6318 29.1384 17.6594 29.0861L16.2556 28.4256L16.2539 28.4264ZM3.37317 24.4593C3.64395 23.8106 3.97619 24.1708 4.12316 23.6419C4.1285 23.6849 4.14008 23.7288 4.15878 23.7735C4.15878 23.7735 4.22826 24.0544 4.85622 23.9869C5.48417 23.9194 5.04149 25.4867 4.59969 25.5812C4.15789 25.6757 2.92781 25.5238 3.37317 24.4601V24.4593Z" fill="#EF7668"/>
<g opacity="0.97">
<path d="M19.1522 24.8295L18.3612 29.1813L15.9509 27.8645L19.0756 24.8295H19.1522Z" fill="#457C9D"/>
<path d="M20.108 24.0669C20.2006 24.1715 20.2398 24.3099 20.2157 24.444L19.2074 29.9945C19.1798 30.1438 19.0774 30.2712 18.9322 30.3361C18.8663 30.3648 18.795 30.38 18.7247 30.38C18.6392 30.38 18.5554 30.3597 18.4797 30.3176L14.9151 28.369C14.7841 28.2973 14.696 28.1724 14.6755 28.0307C14.655 27.8899 14.704 27.7456 14.81 27.6435L18.5189 24.0408C18.6107 23.9514 18.738 23.9008 18.8699 23.9008H19.7348C19.8791 23.9008 20.0162 23.9615 20.1089 24.0661L20.108 24.0669ZM18.3613 29.1813L19.1522 24.8295H19.0756L15.951 27.8637L18.3622 29.1813H18.3613Z" fill="#33597F"/>
</g>
<g opacity="0.97">
<path d="M30.3406 29.1223C30.3673 29.1737 31.0184 30.3985 32.3589 31.5432C33.9035 32.8625 35.7383 33.545 37.7139 33.545C38.0426 33.545 38.3758 33.5264 38.7116 33.4884C41.1192 33.216 42.9603 31.9076 44.0363 29.7035C44.5983 28.5529 44.8067 27.4478 44.8807 26.8886C49.6051 26.1766 47.7372 21.4697 47.0772 21.6333C46.6523 21.7379 46.6817 22.1445 46.9391 23.3331C47.1957 24.5224 46.2381 25.1433 46.2381 25.1433C47.5653 23.0488 45.6725 21.3971 45.2379 21.6974C44.854 21.9623 45.0259 22.3596 45.6396 23.3727C46.2533 24.3858 45.4828 25.0834 45.4828 25.0834C45.6253 24.2002 45.4614 23.2614 44.6411 23.0218C44.0577 22.8514 43.8768 23.2344 43.8626 23.5077C43.6399 22.6996 41.1788 22.3385 41.8121 24.6169C42.1515 25.8375 42.7723 26.4213 43.3273 26.6988C43.2667 27.1543 43.0877 28.1286 42.596 29.1189C41.7462 30.8304 40.3772 31.8047 38.5272 32.0139C33.9373 32.5335 31.7675 28.5031 31.7461 28.4626L30.3424 29.1231L30.3406 29.1223ZM43.3985 25.6165C42.9567 25.522 42.514 23.9547 43.142 24.0222C43.7699 24.0897 43.8394 23.8088 43.8394 23.8088C43.859 23.7641 43.8697 23.7202 43.8751 23.6772C44.022 24.207 44.3543 23.8468 44.625 24.4955C45.0695 25.56 43.8403 25.7118 43.3976 25.6165H43.3985Z" fill="#EF7668"/>
<path d="M28.8459 24.865L29.6369 29.2168L32.0472 27.8992L28.9226 24.865H28.8459Z" fill="#457C9D"/>
<path d="M28.2643 23.937H29.1292C29.2601 23.937 29.3875 23.9885 29.4801 24.077L33.1891 27.6798C33.2951 27.7819 33.3441 27.9253 33.3236 28.067C33.3031 28.2087 33.2149 28.3344 33.0831 28.4052L29.5184 30.3538C29.4427 30.3952 29.359 30.4162 29.2735 30.4162C29.2031 30.4162 29.1318 30.4011 29.0659 30.3724C28.9207 30.3074 28.8183 30.1801 28.7907 30.0307L27.7824 24.4803C27.7575 24.3461 27.7976 24.2078 27.8902 24.1032C27.9828 23.9986 28.12 23.9379 28.2643 23.9379V23.937ZM32.0472 27.8991L28.9225 24.8649H28.8459L29.636 29.2167L32.0472 27.8991Z" fill="#33597F"/>
</g>
<g opacity="0.97">
<path d="M35.146 35.669C34.714 35.1469 32.7125 35.0086 30.9195 34.9942L28.9394 23.4014C28.9011 23.1771 28.6963 23.0117 28.4558 23.0117H19.8826C19.6421 23.0117 19.4372 23.1771 19.3989 23.4014L17.4189 34.9942C15.6259 35.0086 13.6235 35.1469 13.1924 35.669C12.3756 36.6577 22.7231 37.4346 22.7231 37.4346C22.7231 37.4346 23.1765 39.4085 23.6762 39.4085C24.1759 39.4085 23.6762 36.5716 23.6762 36.5716L20.6103 36.2173H27.7307L24.6649 36.5716C24.6649 36.5716 24.1652 39.4085 24.6649 39.4085C25.1646 39.4085 25.6179 37.4346 25.6179 37.4346C25.6179 37.4346 35.9654 36.6577 35.1486 35.669H35.146ZM20.2986 23.9396H28.038L29.6948 33.637H18.6418L20.2986 23.9396Z" fill="#33597F"/>
<path d="M29.6949 33.6369H18.6428L19.888 26.3462L20.2987 23.9387H28.0381L28.4666 26.4457L29.6949 33.6369Z" fill="#457C9D"/>
<path d="M28.4665 26.4457C24.395 28.9434 20.303 26.5967 19.8879 26.3462L20.2995 23.9387H28.0389L28.4673 26.4457H28.4665Z" fill="#457C9D"/>
</g>
<g opacity="0.97">
<path d="M27.7487 24.4846C26.8749 25.2489 25.5941 25.7305 24.1689 25.7305C22.7438 25.7305 21.462 25.2489 20.5891 24.4846C20.5989 24.4677 20.6078 24.4509 20.6158 24.434C20.6336 24.4028 20.6497 24.3707 20.6648 24.3387C20.6969 24.2771 20.7254 24.2147 20.7512 24.1514C20.7655 24.1168 20.7788 24.0839 20.7931 24.0494C20.8056 24.0165 20.818 23.9844 20.8296 23.9523C20.8421 23.9203 20.8519 23.8874 20.8617 23.8553C20.8733 23.8224 20.8822 23.7895 20.8911 23.7575C20.9107 23.6917 20.9267 23.6267 20.9401 23.5609C20.9463 23.5323 20.9525 23.5036 20.957 23.4757C20.9757 23.3737 20.989 23.2708 20.9962 23.1695C21.0015 23.1046 21.0042 23.0396 21.0042 22.9755C21.2572 23.07 21.5466 23.1333 21.8691 23.1333C22.3109 23.1333 22.8141 23.0152 23.369 22.6997C23.7423 22.4863 24.0095 22.2054 24.1698 21.8612C24.3301 22.2054 24.5973 22.4863 24.9706 22.6997C25.5255 23.0152 26.0278 23.1333 26.4705 23.1333C26.793 23.1333 27.0825 23.07 27.3354 22.9755C27.3354 23.0405 27.3381 23.1054 27.3434 23.1695C27.3506 23.2716 27.3648 23.3745 27.3826 23.4757C27.3871 23.5036 27.3933 23.5323 27.3995 23.5609C27.4129 23.6267 27.4289 23.6917 27.4485 23.7575C27.4574 23.7904 27.4672 23.8233 27.4779 23.8553C27.5287 24.0181 27.5946 24.1801 27.6748 24.3395C27.6979 24.3885 27.7238 24.4365 27.7505 24.4846H27.7487Z" fill="#EF7668"/>
<path d="M19.4266 24.7486C18.8931 25.3273 17.3023 26.6053 14.0725 25.9819C9.60468 25.1206 9.96097 21.7811 9.97789 21.6402C10.0002 21.4706 9.89951 21.3087 9.73384 21.2429C7.13472 20.2163 7.46161 17.8308 7.77158 16.7367C8.27038 17.0825 8.83955 17.1871 9.21365 17.215C9.32232 17.9902 9.76323 19.8325 11.542 21.1687C13.4606 22.6103 16.3029 22.9975 19.9905 22.3218C20.0288 22.3606 20.0751 22.4028 20.1259 22.4475C20.3432 23.1544 20.076 24.0468 19.4284 24.7486H19.4266Z" fill="#EF7668"/>
<path d="M22.5584 18.509C22.5762 18.4086 22.6359 18.3192 22.7232 18.261C22.7695 18.2289 23.7742 17.5102 23.3663 15.8299C22.5201 16.9484 21.4058 17.1661 21.3542 17.1762C21.3274 17.1804 21.095 17.2209 20.7502 17.2209C20.1383 17.2209 19.1763 17.0952 18.3952 16.4229C17.5356 15.6823 17.1357 14.4937 17.2052 12.8834C15.6019 13.1255 13.107 12.9576 12.4764 10.896C12.4149 10.6944 12.5378 10.4835 12.7507 10.4253C12.9636 10.3671 13.1863 10.4835 13.2477 10.6851C13.9149 12.8682 17.5071 12.0508 17.5428 12.0424C17.6701 12.0129 17.8029 12.0424 17.9017 12.1234C18.0006 12.2043 18.0523 12.3241 18.0398 12.4464C17.8821 14.0644 18.1832 15.2124 18.935 15.8594C19.8622 16.6566 21.1894 16.4305 21.2018 16.428C21.241 16.4204 22.2707 16.2053 22.9387 15.0454C24.0922 13.042 23.2514 9.85677 22.3037 7.46871C21.3248 7.41135 20.4198 6.57203 19.9646 6.07181C19.5282 6.59227 18.8441 7.08068 17.7744 7.35905C17.7378 7.36833 17.7031 7.37255 17.6675 7.37255C17.4911 7.37255 17.329 7.2612 17.28 7.09249C17.2212 6.8892 17.3477 6.68 17.5615 6.62433C20.3316 5.90479 19.9397 3.58336 19.9219 3.48382C19.8845 3.27716 20.0305 3.07977 20.2488 3.0435C20.4679 3.00807 20.6754 3.14641 20.7128 3.35308C20.7182 3.38513 20.8527 4.14347 20.557 5.01401C20.5169 5.13295 20.4679 5.25695 20.4064 5.38348C20.7859 5.83815 21.6677 6.71121 22.4079 6.71121H22.4293C22.7374 6.70362 23.0047 6.53069 23.246 6.18231C23.882 5.2637 24.0236 3.40959 23.1614 1.89797C23.0403 1.6854 22.8488 1.40197 22.5914 1.17084C22.3339 0.939706 22.0115 0.761719 21.6258 0.761719C19.5683 0.761719 18.6401 1.64828 17.8225 2.43024C17.6782 2.56858 17.5419 2.69849 17.4011 2.82333C17.3228 2.89335 17.2177 2.92962 17.109 2.9254C17.0956 2.9254 15.6972 2.87648 14.272 3.27716C12.4657 3.78497 11.4574 4.75167 11.2748 6.15194C11.281 6.38139 11.3772 8.13764 12.9502 8.13764H12.9573C13.1791 8.13764 13.3591 8.30719 13.3591 8.51639C13.3591 8.72643 13.1809 8.89767 12.9591 8.89851H12.9493C12.2964 8.89851 11.7513 8.69691 11.3291 8.29791C10.833 7.82975 10.6245 7.18781 10.5355 6.72302C8.62845 7.78335 8.18487 9.62817 8.43605 11.0774C8.63914 12.255 9.30717 13.1584 10.0233 13.2259C10.2433 13.2461 10.4045 13.4325 10.3823 13.6417C10.3618 13.8383 10.1872 13.9842 9.98323 13.9842C9.97076 13.9842 9.95651 13.9842 9.94315 13.9825C9.14061 13.9066 8.43427 13.2959 8.00316 12.3714C7.73149 12.8522 7.36719 13.7666 7.58007 14.9771C7.85887 16.5638 9.36685 16.4769 9.53787 16.4617C9.545 16.4617 9.55301 16.4617 9.56014 16.4617C9.57261 16.4617 9.58508 16.4592 9.59755 16.46C11.2276 16.5376 11.8422 15.9159 11.868 15.8889C12.0114 15.7295 12.2635 15.7118 12.4318 15.8476C12.6011 15.9834 12.6198 16.2264 12.4764 16.3866C12.4443 16.4221 11.7406 17.1812 10.0278 17.2251C10.1498 17.9413 10.5773 19.479 12.0479 20.5782C13.8115 21.8975 16.506 22.2189 20.0564 21.5331C20.2114 21.5035 20.3717 21.5626 20.4634 21.6849C20.4884 21.717 20.5668 21.8131 20.6932 21.9219C20.7253 21.9413 20.7556 21.9658 20.7814 21.9945C21.1778 22.2998 21.9242 22.6314 22.9512 22.0459C23.2576 21.8713 23.4393 21.636 23.5061 21.3264C23.6959 20.455 22.9343 19.2032 22.6243 18.7932C22.5629 18.7114 22.537 18.6085 22.5548 18.5081L22.5584 18.509ZM17.5526 20.6195H17.5437C17.0947 20.6102 16.6966 20.4508 16.3643 20.1513C16.1141 20.191 15.8771 20.2112 15.6553 20.2112C14.9873 20.2112 14.452 20.0307 14.0574 19.6705C13.1595 18.8514 13.4009 17.4377 13.4116 17.3778C13.449 17.1711 13.6557 17.0311 13.8748 17.0665C14.093 17.1011 14.2409 17.2976 14.2043 17.5052C14.2017 17.5195 14.0253 18.5883 14.6168 19.1248C14.8866 19.3694 15.2946 19.4774 15.8326 19.4461C15.5859 18.9721 15.5048 18.5208 15.5012 18.5005C15.4647 18.2939 15.6135 18.0982 15.8326 18.0636C16.0517 18.029 16.2575 18.169 16.294 18.3765C16.2975 18.3951 16.5692 19.8384 17.5597 19.8578C17.7824 19.8629 17.9578 20.0366 17.9525 20.2467C17.948 20.4542 17.769 20.6187 17.5517 20.6187L17.5526 20.6195Z" fill="#EF7668"/>
<path d="M38.6036 21.2429C38.437 21.3087 38.3364 21.4706 38.3596 21.6402C38.3765 21.7811 38.7337 25.1206 34.2649 25.9819C31.0352 26.6053 29.4443 25.3273 28.9108 24.7486C28.2632 24.0468 27.9951 23.1544 28.2134 22.4475C28.2641 22.4028 28.3096 22.3606 28.3488 22.3218C32.0363 22.9975 34.8786 22.6103 36.7972 21.1687C38.576 19.8325 39.0169 17.9902 39.1256 17.215C39.4997 17.1871 40.0679 17.0825 40.5676 16.7367C40.8776 17.8308 41.2045 20.2163 38.6054 21.2429H38.6036Z" fill="#EF7668"/>
<path d="M40.3327 12.3714C39.9024 13.2959 39.1961 13.9066 38.3927 13.9825C38.3793 13.9825 38.3651 13.9842 38.3526 13.9842C38.1486 13.9842 37.9731 13.8383 37.9527 13.6417C37.9304 13.4325 38.0916 13.2461 38.3116 13.2259C39.0278 13.1584 39.6958 12.255 39.8989 11.0774C40.1492 9.62817 39.7056 7.78335 37.7995 6.72302C37.7104 7.18697 37.5011 7.82975 37.0058 8.29791C36.5836 8.69691 36.0394 8.89851 35.3856 8.89851H35.3758C35.154 8.89851 34.975 8.72643 34.9759 8.51639C34.9759 8.30719 35.1558 8.13764 35.3776 8.13764H35.3847C36.9577 8.13764 37.0539 6.38223 37.0602 6.15194C36.8776 4.75251 35.8693 3.78497 34.0629 3.27716C32.6377 2.87648 31.2402 2.9254 31.2259 2.9254C31.1173 2.92962 31.0131 2.89335 30.9347 2.82333C30.794 2.69933 30.6586 2.56943 30.5134 2.43024C29.6948 1.64828 28.7667 0.761719 26.71 0.761719C26.3252 0.761719 26.0019 0.939706 25.7454 1.17084C25.4879 1.40197 25.2973 1.68624 25.1753 1.89797C24.3131 3.40959 24.4556 5.2637 25.0907 6.18231C25.3321 6.53069 25.5984 6.70362 25.9075 6.71121H25.9288C26.6699 6.71121 27.5508 5.83815 27.9303 5.38348C27.8688 5.25695 27.8198 5.13295 27.7798 5.01401C27.484 4.14432 27.6185 3.38513 27.6239 3.35308C27.6613 3.14641 27.8688 3.00807 28.0879 3.0435C28.3062 3.07893 28.4531 3.27631 28.4148 3.48382C28.397 3.58252 28.0051 5.90479 30.7752 6.62433C30.989 6.68 31.1155 6.8892 31.0567 7.09249C31.0077 7.2612 30.8456 7.37255 30.6692 7.37255C30.6336 7.37255 30.598 7.36833 30.5624 7.35905C29.4926 7.08153 28.8085 6.59227 28.3721 6.07181C27.9169 6.57203 27.0111 7.41135 26.0331 7.46871C25.0853 9.85677 24.2454 13.042 25.398 15.0454C26.066 16.2053 27.0957 16.4204 27.1349 16.428C27.1482 16.4305 28.4745 16.6566 29.4018 15.8594C30.1535 15.2124 30.4546 14.0644 30.2969 12.4464C30.2845 12.3241 30.3361 12.2035 30.435 12.1234C30.5339 12.0432 30.6675 12.0129 30.794 12.0424C30.8305 12.0508 34.4227 12.8674 35.089 10.6851C35.1505 10.4835 35.3731 10.3671 35.586 10.4253C35.7989 10.4835 35.9218 10.6944 35.8604 10.896C35.2306 12.9576 32.7348 13.1255 31.1315 12.8834C31.201 14.4937 30.8011 15.6823 29.9415 16.4229C29.1604 17.0952 28.1975 17.2209 27.5865 17.2209C27.2418 17.2209 27.0084 17.1804 26.9826 17.1762C26.9309 17.1661 25.8166 16.9484 24.9704 15.8299C24.5625 17.5094 25.5663 18.2289 25.6135 18.261C25.7008 18.32 25.7605 18.4086 25.7783 18.509C25.797 18.6094 25.7712 18.7123 25.7088 18.7941C25.3998 19.2032 24.6373 20.4559 24.827 21.3272C24.8947 21.636 25.0764 21.8722 25.3828 22.0468C26.4098 22.633 27.1563 22.3007 27.5526 21.9953C27.5785 21.9666 27.6087 21.943 27.6408 21.9228C27.7673 21.8131 27.8457 21.717 27.8706 21.6857C27.9632 21.5634 28.1227 21.5035 28.2777 21.5339C31.8281 22.2206 34.5225 21.8992 36.2861 20.579C37.7567 19.4799 38.1842 17.9421 38.3063 17.2259C36.5925 17.1821 35.8898 16.4221 35.8577 16.3875C35.7134 16.2272 35.7321 15.9851 35.9022 15.8484C36.0706 15.7126 36.3226 15.7295 36.4661 15.8898C36.4919 15.9168 37.1065 16.5385 38.7365 16.4609C38.749 16.4609 38.7605 16.4625 38.773 16.4625C38.7801 16.4625 38.7882 16.4625 38.7953 16.4625C38.9654 16.4777 40.4743 16.5646 40.7531 14.9779C40.966 13.7674 40.6017 12.853 40.33 12.3722L40.3327 12.3714ZM34.2793 19.6714C33.8847 20.0316 33.3494 20.2121 32.6814 20.2121C32.4596 20.2121 32.2227 20.1918 31.9724 20.1522C31.6401 20.4516 31.2429 20.6111 30.7931 20.6204H30.7842C30.5668 20.6204 30.3869 20.4559 30.3833 20.2484C30.3789 20.0383 30.5535 19.8645 30.7761 19.8595C31.7666 19.8401 32.0374 18.3968 32.0418 18.3782C32.0784 18.1707 32.2841 18.0307 32.5032 18.0653C32.7224 18.0999 32.8702 18.2947 32.8346 18.5022C32.831 18.5216 32.75 18.9729 32.5032 19.4478C33.0412 19.479 33.4492 19.3719 33.7191 19.1264C34.3105 18.59 34.1341 17.5212 34.1315 17.5068C34.095 17.3002 34.2428 17.1036 34.461 17.0682C34.6793 17.0328 34.8868 17.1728 34.9242 17.3795C34.9358 17.4394 35.1763 18.8531 34.2793 19.6722V19.6714Z" fill="#EF7668"/>
<path d="M17.5606 19.8585C17.7832 19.8636 17.9587 20.0373 17.9534 20.2474C17.9498 20.4549 17.7699 20.6194 17.5525 20.6194H17.5436C17.0947 20.6101 16.6966 20.4507 16.3643 20.1512C16.114 20.1909 15.8771 20.2111 15.6553 20.2111C14.9873 20.2111 14.452 20.0306 14.0574 19.6704C13.1595 18.8513 13.4009 17.4376 13.4116 17.3777C13.449 17.171 13.6556 17.031 13.8748 17.0664C14.093 17.101 14.24 17.2975 14.2043 17.505C14.2017 17.5194 14.0253 18.5881 14.6167 19.1246C14.8866 19.3693 15.2946 19.4772 15.8326 19.446C15.5858 18.972 15.5048 18.5207 15.5012 18.5004C15.4647 18.2937 15.6134 18.098 15.8326 18.0635C16.0517 18.0289 16.2574 18.1689 16.294 18.3764C16.2975 18.395 16.5692 19.8383 17.5597 19.8577L17.5606 19.8585Z" fill="#EF564B"/>
<path d="M30.7772 19.8585C30.5545 19.8636 30.3799 20.0373 30.3844 20.2474C30.3879 20.4549 30.5678 20.6194 30.7852 20.6194H30.7941C31.243 20.6101 31.6412 20.4507 31.9734 20.1512C32.2237 20.1909 32.4606 20.2111 32.6824 20.2111C33.3505 20.2111 33.8858 20.0306 34.2804 19.6704C35.1782 18.8513 34.9368 17.4376 34.9252 17.3777C34.8878 17.171 34.6812 17.031 34.4621 17.0664C34.2438 17.101 34.0969 17.2975 34.1325 17.505C34.1352 17.5194 34.3115 18.5881 33.7201 19.1246C33.4502 19.3693 33.0414 19.4772 32.5043 19.446C32.751 18.972 32.8321 18.5207 32.8356 18.5004C32.8721 18.2937 32.7234 18.098 32.5043 18.0635C32.2852 18.0289 32.0794 18.1689 32.0429 18.3764C32.0393 18.395 31.7685 19.8383 30.7772 19.8577V19.8585Z" fill="#EF564B"/>
<path d="M41.5477 15.1019C41.9253 12.9568 40.7523 11.57 40.7024 11.5118C40.6837 11.4907 40.6632 11.4713 40.6409 11.4553C40.6605 11.3709 40.6774 11.2866 40.6926 11.1997C40.9901 9.48055 40.4084 7.08237 37.8289 5.87189C37.5439 4.25988 36.3183 3.11098 34.2714 2.54074C33.0119 2.18983 31.8094 2.16031 31.3659 2.16115C31.2741 2.0768 31.1806 1.98738 31.0826 1.89459C30.6417 1.47198 30.1456 0.998752 29.4615 0.630968C28.7774 0.262341 27.9045 0 26.7083 0C25.8282 0 25.0319 0.545771 24.4672 1.53693C24.3559 1.73095 24.2561 1.94352 24.1671 2.16874C24.0789 1.94352 23.9782 1.73095 23.8669 1.53693C23.3022 0.545771 22.5059 0 21.6258 0C20.4296 0 19.5567 0.262341 18.8726 0.630968C18.1886 0.998752 17.6933 1.47198 17.2515 1.89459C17.1544 1.98738 17.06 2.0768 16.9683 2.16115C16.5256 2.16115 15.3222 2.18983 14.0627 2.54074C12.0159 3.11098 10.7902 4.25988 10.5052 5.87189C7.92568 7.08152 7.34494 9.47971 7.64154 11.1997C7.65669 11.2866 7.67361 11.3709 7.69321 11.4553C7.67183 11.4713 7.65045 11.4907 7.63175 11.5118C7.58187 11.57 6.40879 12.9559 6.78645 15.1019C6.85593 15.495 6.98152 15.8155 7.14363 16.077C7.00824 16.4465 6.74637 17.2917 6.76597 18.2593C6.79892 19.9076 7.62462 21.1383 9.16111 21.8351C9.15666 22.2265 9.20654 22.9679 9.57441 23.771C10.4527 25.6934 12.4167 26.4408 13.9095 26.7284C14.5731 26.8567 15.1779 26.9115 15.7257 26.9115C18.1868 26.9115 19.5184 25.8056 20.0297 25.2505C20.0502 25.2286 20.0698 25.2067 20.0902 25.1839C21.119 26.0367 22.5664 26.569 24.1671 26.569C25.7677 26.569 27.2151 26.0367 28.2439 25.1839C28.2376 25.1772 28.2314 25.1696 28.2261 25.1628C28.2519 25.1923 28.2777 25.2219 28.3045 25.2505C28.8166 25.8056 30.1482 26.9115 32.6084 26.9115C33.1562 26.9115 33.761 26.8567 34.4246 26.7284C35.9165 26.4408 37.8806 25.6934 38.7597 23.771C39.1267 22.9679 39.1775 22.2256 39.173 21.8351C40.7086 21.1383 41.5352 19.9084 41.5682 18.2593C41.5877 17.2917 41.3259 16.4465 41.1905 16.077C41.3517 15.8164 41.4782 15.4958 41.5468 15.1019H41.5477ZM24.1688 21.8604C24.3292 22.2045 24.5964 22.4854 24.9696 22.6988C25.5245 23.0143 26.0269 23.1324 26.4696 23.1324C26.792 23.1324 27.0815 23.0692 27.3345 22.9747C27.3345 23.0396 27.3371 23.1046 27.3425 23.1687C27.3496 23.2708 27.3639 23.3737 27.3817 23.4749C27.387 23.5036 27.3932 23.5323 27.3986 23.5601C27.4128 23.6259 27.4289 23.6908 27.4476 23.7566C27.4574 23.7895 27.4672 23.8224 27.477 23.8545C27.5295 24.0164 27.5945 24.1784 27.6738 24.3387C27.7059 24.4019 27.7397 24.4652 27.7763 24.5285C27.7718 24.5217 27.7673 24.5141 27.7629 24.5065C27.7593 24.499 27.754 24.4914 27.7495 24.4846C26.8757 25.2489 25.5949 25.7305 24.1697 25.7305C22.7446 25.7305 21.4628 25.2489 20.5899 24.4846C20.5819 24.499 20.5721 24.5133 20.5641 24.5285C20.5819 24.4973 20.5997 24.4652 20.6167 24.434C20.6336 24.4019 20.6505 24.3699 20.6656 24.3387C20.6968 24.2763 20.7262 24.2138 20.752 24.1514C20.7663 24.1168 20.7797 24.0839 20.7939 24.0493C20.8064 24.0164 20.818 23.9836 20.8304 23.9523C20.842 23.9194 20.8518 23.8865 20.8625 23.8553C20.8732 23.8224 20.883 23.7895 20.8919 23.7575C20.9106 23.6917 20.9266 23.6267 20.9409 23.5609C20.9462 23.5331 20.9525 23.5044 20.9578 23.4757C20.9765 23.3737 20.9899 23.2708 20.997 23.1695C21.0023 23.1046 21.005 23.0396 21.005 22.9755C21.258 23.07 21.5475 23.1333 21.8699 23.1333C22.3117 23.1333 22.8149 23.0152 23.3699 22.6997C23.7431 22.4863 24.0103 22.2054 24.1706 21.8612L24.1688 21.8604ZM8.00496 12.3714C8.43607 13.2959 9.14241 13.9066 9.94494 13.9825C9.95831 13.9825 9.97256 13.9842 9.98503 13.9842C10.189 13.9842 10.3645 13.8383 10.3841 13.6417C10.4063 13.4325 10.2451 13.2461 10.0251 13.2259C9.30897 13.1584 8.64093 12.255 8.43785 11.0774C8.18756 9.62817 8.63024 7.78335 10.5373 6.72302C10.6263 7.18697 10.8357 7.82975 11.3309 8.29791C11.7531 8.69691 12.2973 8.89851 12.9511 8.89851H12.9609C13.1827 8.89851 13.3617 8.72643 13.3609 8.51639C13.3609 8.30719 13.1809 8.13764 12.9591 8.13764H12.952C11.379 8.13764 11.2828 6.38223 11.2766 6.15194C11.4592 4.75251 12.4675 3.78497 14.2738 3.27716C15.699 2.87647 17.0965 2.9254 17.1108 2.9254C17.2194 2.92962 17.3237 2.89334 17.4029 2.82333C17.5437 2.69933 17.6791 2.56943 17.8242 2.43024C18.6428 1.64828 19.5709 0.761717 21.6276 0.761717C22.0124 0.761717 22.3357 0.939704 22.5932 1.17083C22.8506 1.40196 23.0412 1.68624 23.1632 1.89797C24.0254 3.40959 23.8829 5.26369 23.2478 6.18231C23.0065 6.53069 22.7401 6.70362 22.431 6.71121H22.4097C21.6686 6.71121 20.7868 5.83815 20.4082 5.38348C20.4697 5.25695 20.5187 5.13295 20.5588 5.01401C20.8545 4.14432 20.72 3.38513 20.7146 3.35307C20.6772 3.14641 20.4697 3.00807 20.2506 3.04349C20.0323 3.07892 19.8854 3.27631 19.9237 3.48382C19.9415 3.58252 20.3334 5.90479 17.5633 6.62433C17.3495 6.68 17.223 6.8892 17.2818 7.09249C17.3308 7.2612 17.4929 7.37255 17.6693 7.37255C17.7049 7.37255 17.7396 7.36833 17.7761 7.35905C18.8459 7.08152 19.53 6.59227 19.9664 6.07181C20.4225 6.57203 21.3266 7.41135 22.3055 7.46871C23.2532 9.85677 24.0931 13.042 22.9405 15.0454C22.2725 16.2053 21.2428 16.4204 21.2036 16.428C21.1912 16.4305 19.864 16.6566 18.9368 15.8594C18.185 15.2124 17.8839 14.0644 18.0416 12.4464C18.0541 12.3241 18.0024 12.2035 17.9035 12.1234C17.8047 12.0432 17.671 12.0129 17.5446 12.0424C17.508 12.0508 13.9167 12.8674 13.2495 10.6851C13.1881 10.4835 12.9654 10.3671 12.7525 10.4253C12.5396 10.4835 12.4167 10.6944 12.4782 10.896C13.1079 12.9576 15.6037 13.1255 17.207 12.8834C17.1375 14.4937 17.5374 15.6823 18.397 16.4229C19.1781 17.0952 20.141 17.2209 20.752 17.2209C21.0968 17.2209 21.3301 17.1804 21.3559 17.1762C21.4076 17.1661 22.5219 16.9484 23.3681 15.8299C23.776 17.5094 22.7722 18.2289 22.725 18.261C22.6377 18.32 22.578 18.4086 22.5602 18.509C22.5415 18.6094 22.5673 18.7123 22.6297 18.7941C22.9388 19.2032 23.7012 20.4559 23.5115 21.3272C23.4438 21.636 23.2621 21.8722 22.9566 22.0468C21.9296 22.633 21.1831 22.3007 20.7868 21.9953C20.7609 21.9666 20.7307 21.943 20.6986 21.9228C20.5712 21.8131 20.4937 21.717 20.4688 21.6857C20.3762 21.5634 20.2167 21.5035 20.0617 21.5339C16.5113 22.2205 13.8169 21.8992 12.0533 20.579C10.5827 19.4799 10.1552 17.9421 10.0331 17.2259C11.7469 17.1821 12.4496 16.422 12.4817 16.3875C12.626 16.2272 12.6073 15.9851 12.4372 15.8484C12.2679 15.7126 12.0168 15.7295 11.8734 15.8898C11.8475 15.9168 11.2329 16.5385 9.60291 16.4609C9.59044 16.4609 9.57886 16.4625 9.5655 16.4625C9.55837 16.4625 9.55036 16.4625 9.54323 16.4625C9.3731 16.4777 7.86422 16.5646 7.58543 14.9779C7.37255 13.7674 7.73685 12.853 8.00852 12.3722L8.00496 12.3714ZM19.4267 24.7495C18.8931 25.3282 17.3023 26.6061 14.0725 25.9827C9.60469 25.1215 9.96098 21.7819 9.9779 21.641C10.0002 21.4715 9.89952 21.3095 9.73384 21.2437C7.13473 20.2171 7.46162 17.8316 7.77159 16.7375C8.27039 17.0834 8.83956 17.188 9.21366 17.2158C9.32233 17.991 9.76324 19.8333 11.542 21.1695C13.4606 22.6111 16.3029 22.9983 19.9905 22.3226C20.0288 22.3614 20.0751 22.4036 20.1259 22.4483C20.3432 23.1552 20.076 24.0477 19.4284 24.7495H19.4267ZM38.6047 21.2437C38.4382 21.3095 38.3375 21.4715 38.3607 21.641C38.3776 21.7819 38.7348 25.1215 34.266 25.9827C31.0363 26.6061 29.4455 25.3282 28.9119 24.7495C28.2644 24.0477 27.9963 23.1552 28.2145 22.4483C28.2653 22.4036 28.3107 22.3614 28.3499 22.3226C32.0375 22.9983 34.8797 22.6111 36.7984 21.1695C38.5771 19.8333 39.018 17.991 39.1267 17.2158C39.5008 17.188 40.0691 17.0834 40.5688 16.7375C40.8787 17.8316 41.2056 20.2171 38.6065 21.2437H38.6047ZM40.7558 14.9779C40.477 16.5646 38.9681 16.4777 38.798 16.4625C38.7909 16.4625 38.7829 16.4625 38.7757 16.4625C38.7633 16.4625 38.7508 16.46 38.7392 16.4609C37.1092 16.5385 36.4946 15.9168 36.4688 15.8898C36.3245 15.7303 36.0733 15.7126 35.905 15.8484C35.7357 15.9843 35.717 16.2272 35.8604 16.3875C35.8925 16.4229 36.5953 17.1821 38.309 17.2259C38.187 17.9421 37.7594 19.4799 36.2889 20.579C34.5252 21.8983 31.8299 22.2197 28.2804 21.5339C28.1254 21.5044 27.9651 21.5634 27.8733 21.6857C27.8484 21.7178 27.77 21.814 27.6435 21.9228C27.6115 21.9422 27.5812 21.9666 27.5554 21.9953C27.159 22.3007 26.4126 22.6322 25.3856 22.0468C25.0792 21.8722 24.8974 21.6368 24.8298 21.3272C24.64 20.4559 25.4016 19.204 25.7116 18.7941C25.7739 18.7123 25.7989 18.6094 25.781 18.509C25.7632 18.4086 25.7036 18.3192 25.6163 18.261C25.5699 18.2289 24.5652 17.5102 24.9732 15.8299C25.8193 16.9484 26.9336 17.1661 26.9853 17.1762C27.012 17.1804 27.2445 17.2209 27.5892 17.2209C28.2011 17.2209 29.1631 17.0952 29.9443 16.4229C30.8038 15.6823 31.2037 14.4937 31.1343 12.8834C32.7376 13.1255 35.2325 12.9576 35.8631 10.896C35.9254 10.6944 35.8016 10.4835 35.5888 10.4253C35.3759 10.3671 35.1532 10.4835 35.0917 10.6851C34.4246 12.8682 30.8323 12.0508 30.7967 12.0424C30.6693 12.0129 30.5366 12.0424 30.4377 12.1234C30.3389 12.2043 30.2872 12.3241 30.2997 12.4464C30.4573 14.0644 30.1563 15.2124 29.4045 15.8594C28.4773 16.6566 27.1501 16.4305 27.1376 16.428C27.0984 16.4204 26.0687 16.2053 25.4007 15.0454C24.2472 13.042 25.0881 9.85677 26.0358 7.46871C27.0147 7.41135 27.9197 6.57203 28.3748 6.07181C28.8113 6.59227 29.4953 7.08068 30.5651 7.35905C30.6007 7.36833 30.6364 7.37255 30.672 7.37255C30.8483 7.37255 31.0105 7.2612 31.0594 7.09249C31.1182 6.8892 30.9917 6.68 30.778 6.62433C28.0078 5.90479 28.3998 3.58336 28.4176 3.48382C28.4559 3.27716 28.3089 3.07977 28.0907 3.04349C27.8716 3.00807 27.664 3.14641 27.6266 3.35307C27.6213 3.38513 27.4868 4.14347 27.7825 5.01401C27.8226 5.13295 27.8716 5.25695 27.933 5.38348C27.5536 5.83815 26.6718 6.71121 25.9316 6.71121H25.9102C25.602 6.70362 25.3348 6.53069 25.0934 6.18231C24.4574 5.26369 24.3158 3.40959 25.178 1.89797C25.2992 1.68539 25.4907 1.40196 25.7481 1.17083C26.0055 0.939704 26.3279 0.761717 26.7127 0.761717C28.7703 0.761717 29.6984 1.64828 30.5161 2.43024C30.6604 2.56858 30.7967 2.69849 30.9374 2.82333C31.0158 2.89334 31.1209 2.92962 31.2287 2.9254C31.242 2.9254 32.6405 2.87647 34.0656 3.27716C35.872 3.78497 36.8803 4.75166 37.0629 6.15194C37.0567 6.38139 36.9605 8.13764 35.3874 8.13764H35.3803C35.1585 8.13764 34.9786 8.30719 34.9786 8.51639C34.9786 8.72643 35.1568 8.89767 35.3785 8.89851H35.3883C36.0421 8.89851 36.5864 8.69691 37.0086 8.29791C37.5047 7.82975 37.7131 7.18781 37.8022 6.72302C39.7092 7.78335 40.1528 9.62817 39.9016 11.0774C39.6985 12.255 39.0305 13.1584 38.3144 13.2259C38.0943 13.2461 37.9322 13.4325 37.9554 13.6417C37.9759 13.8383 38.1505 13.9842 38.3553 13.9842C38.3678 13.9842 38.382 13.9842 38.3954 13.9825C39.1979 13.9066 39.9043 13.2959 40.3354 12.3714C40.6071 12.8522 40.9714 13.7666 40.7585 14.9771L40.7558 14.9779Z" fill="#EF564B"/>
</g>
<g opacity="0.97">
<path d="M28.0586 22.1858C28.0586 22.7055 27.8003 23.1888 27.3611 23.5836C26.9603 23.9463 26.4081 24.2382 25.7614 24.4204C25.276 24.5579 24.7362 24.6355 24.1679 24.6355C23.5996 24.6355 23.0599 24.5587 22.5726 24.4204C21.926 24.2373 21.3737 23.9463 20.9729 23.5836C20.5347 23.1871 20.2764 22.7046 20.2764 22.1858C20.2764 21.1989 21.2018 21.6502 22.5352 21.9682C23.0323 22.0854 23.5854 22.1858 24.1679 22.1858C24.7505 22.1858 25.3027 22.0854 25.7988 21.9682C27.1322 21.6502 28.0586 21.1989 28.0586 22.1858Z" fill="#33597F"/>
</g>
<path opacity="0.97" d="M25.7623 24.2348C25.2768 24.3732 24.737 24.4499 24.1688 24.4499C23.6005 24.4499 23.0607 24.3732 22.5735 24.2348C22.6839 23.4951 23.3555 22.9257 24.1679 22.9257C24.9802 22.9257 25.6518 23.4951 25.7623 24.2348Z" fill="#EF564B"/>
<g opacity="0.97">
<path d="M21.746 18.1732C21.746 18.1732 21.7505 18.2044 21.7594 18.2634C21.7629 18.293 21.7683 18.3292 21.7736 18.3714C21.7763 18.3933 21.7799 18.4153 21.7816 18.4406C21.7816 18.4684 21.7816 18.4979 21.7808 18.5283C21.7799 18.5907 21.779 18.6616 21.7745 18.7375C21.7665 18.81 21.7531 18.8885 21.7407 18.9737C21.7264 19.058 21.6988 19.1449 21.6756 19.2394C21.6498 19.333 21.6062 19.4258 21.5679 19.5271C21.5207 19.6241 21.469 19.7244 21.4075 19.8257C21.3407 19.9227 21.2766 20.0281 21.1911 20.1226C21.0325 20.3217 20.825 20.5022 20.5916 20.6642C20.5311 20.7021 20.4705 20.7418 20.4082 20.7789C20.3458 20.816 20.2781 20.8455 20.2113 20.8793L20.1107 20.9282L20.0055 20.9687C19.9343 20.994 19.8639 21.0227 19.79 21.0446C19.6421 21.0834 19.4934 21.1273 19.3384 21.1441C19.2618 21.1559 19.1843 21.1686 19.1059 21.1703L18.9892 21.1762L18.9304 21.1796L18.9011 21.1812H18.8752C18.8628 21.1821 18.8984 21.1829 18.8458 21.1812L18.649 21.1703L18.6 21.1677C18.584 21.1677 18.5679 21.1661 18.5448 21.1627L18.4201 21.1458C18.339 21.1323 18.249 21.1247 18.1769 21.1028C18.1021 21.0834 18.0282 21.064 17.9533 21.0446C17.8803 21.0227 17.809 20.994 17.7387 20.9687L17.6336 20.9282L17.5329 20.8793C17.467 20.8455 17.3984 20.816 17.3361 20.7789C17.2737 20.7409 17.2131 20.7021 17.1526 20.6642C16.9192 20.5022 16.7117 20.3217 16.5531 20.1226C16.4685 20.0281 16.4035 19.9227 16.3367 19.8257C16.2761 19.7253 16.2236 19.6241 16.1763 19.5271C16.138 19.4258 16.0944 19.333 16.0686 19.2394C16.0445 19.1449 16.0178 19.0572 16.0035 18.9737C15.9911 18.8885 15.9777 18.8109 15.9697 18.7375C15.9661 18.6641 15.9661 18.5966 15.9652 18.5367C15.9652 18.5064 15.9652 18.4785 15.9644 18.4515C15.9661 18.4245 15.9697 18.4001 15.9715 18.3765C15.9768 18.3301 15.9813 18.2913 15.9848 18.2592C15.9937 18.196 15.9982 18.1631 15.9982 18.1631C16.0125 18.061 16.1104 17.9893 16.2182 18.0019C16.3002 18.0121 16.3634 18.0686 16.383 18.1394L16.3892 18.1631C16.3892 18.1631 16.3972 18.1917 16.4115 18.2457C16.4275 18.2989 16.44 18.3773 16.4756 18.4718C16.4917 18.519 16.5104 18.5705 16.53 18.627C16.5567 18.6818 16.5807 18.7409 16.6083 18.8025C16.6368 18.864 16.6769 18.9256 16.7126 18.9923C16.7509 19.0572 16.799 19.1213 16.8426 19.1896C16.8943 19.2537 16.945 19.3221 17.0047 19.387C17.0688 19.4486 17.1241 19.5195 17.198 19.5768C17.3325 19.705 17.4982 19.8113 17.671 19.9109C17.8464 20.0087 18.0424 20.0787 18.2419 20.1361C18.2927 20.1471 18.3444 20.158 18.396 20.169C18.4227 20.1757 18.4468 20.1791 18.4691 20.1808L18.5385 20.1901L18.608 20.201C18.6178 20.2036 18.6338 20.2044 18.6508 20.2044L18.6998 20.2061L18.8966 20.2145C18.8458 20.2137 18.8841 20.2145 18.8734 20.2145H18.8913L18.9109 20.2129L18.9509 20.2112L19.0311 20.2078C19.0845 20.2078 19.1371 20.1994 19.1896 20.1918C19.2413 20.1825 19.2956 20.1825 19.3464 20.1681C19.3981 20.1572 19.4488 20.1462 19.5005 20.1353C19.7009 20.0779 19.8969 20.0079 20.0715 19.91C20.2443 19.8105 20.4099 19.7042 20.5444 19.576C20.6184 19.5186 20.6745 19.4478 20.7377 19.3862C20.7965 19.3212 20.8473 19.2529 20.8998 19.1888C20.9435 19.1205 20.9925 19.0564 21.0299 18.9914C21.0655 18.9256 21.1056 18.864 21.1341 18.8016C21.1617 18.7392 21.1849 18.6801 21.2116 18.6262C21.2312 18.573 21.249 18.5232 21.265 18.4794C21.273 18.4566 21.2811 18.4347 21.2882 18.4144C21.2944 18.3917 21.2998 18.368 21.3051 18.3478C21.3149 18.3056 21.3238 18.2702 21.3309 18.2415C21.3461 18.1833 21.3541 18.1529 21.3541 18.1529C21.3799 18.0517 21.4886 17.9893 21.5955 18.0146C21.6774 18.0331 21.7344 18.0981 21.746 18.1723V18.1732Z" fill="#33597F"/>
<path d="M32.3538 18.1732C32.3538 18.1732 32.3582 18.2044 32.3671 18.2634C32.3707 18.293 32.3751 18.3292 32.3814 18.3714C32.384 18.3933 32.3876 18.4153 32.3894 18.4406C32.3894 18.4684 32.3894 18.4979 32.3885 18.5283C32.3867 18.5907 32.3867 18.6616 32.3823 18.7375C32.3742 18.81 32.3609 18.8885 32.3484 18.9737C32.3333 19.058 32.3065 19.1449 32.2825 19.2394C32.2567 19.333 32.213 19.4258 32.1747 19.5271C32.1275 19.6241 32.0758 19.7244 32.0144 19.8257C31.9485 19.9227 31.8835 20.0281 31.7979 20.1226C31.6394 20.3217 31.4319 20.5022 31.1985 20.6642C31.1379 20.7021 31.0774 20.7418 31.015 20.7789C30.9527 20.816 30.885 20.8455 30.8182 20.8793L30.7175 20.9282L30.6124 20.9687C30.5411 20.994 30.4708 21.0227 30.3977 21.0446C30.2499 21.0834 30.1011 21.1273 29.9452 21.1441C29.8686 21.1559 29.7912 21.1686 29.7128 21.1703L29.5961 21.1762L29.5373 21.1796L29.5079 21.1812H29.4821C29.4696 21.1821 29.5052 21.1829 29.4527 21.1812L29.2558 21.1703L29.2068 21.1677C29.1908 21.1677 29.1748 21.1661 29.1516 21.1627L29.0269 21.1458C28.9459 21.1323 28.8559 21.1247 28.7838 21.1028C28.7089 21.0834 28.635 21.064 28.5602 21.0446C28.4871 21.0227 28.4159 20.994 28.3446 20.9687L28.2395 20.9282L28.1389 20.8793C28.073 20.8455 28.0053 20.816 27.942 20.7789C27.8797 20.7409 27.8191 20.7021 27.7585 20.6642C27.5252 20.5022 27.3176 20.3217 27.1591 20.1226C27.0745 20.0281 27.0094 19.9227 26.9426 19.8257C26.8821 19.7253 26.8295 19.6241 26.7823 19.5271C26.744 19.4258 26.7004 19.333 26.6745 19.2394C26.6505 19.1449 26.6238 19.0572 26.6095 18.9737C26.597 18.8885 26.5837 18.8109 26.5757 18.7375C26.5721 18.6641 26.5721 18.5966 26.5712 18.5367C26.5712 18.5064 26.5712 18.4785 26.5703 18.4515C26.5721 18.4245 26.5757 18.4001 26.5783 18.3765C26.5837 18.3301 26.5881 18.2913 26.5917 18.2592C26.6006 18.196 26.6051 18.1631 26.6051 18.1631C26.6193 18.061 26.7173 17.9893 26.8251 18.0019C26.907 18.0121 26.9702 18.0686 26.9898 18.1394L26.9961 18.1631C26.9961 18.1631 27.0041 18.1917 27.0183 18.2457C27.0344 18.2989 27.0468 18.3773 27.0825 18.4718C27.0985 18.519 27.1172 18.5705 27.1368 18.627C27.1635 18.6818 27.1876 18.7409 27.2152 18.8025C27.2437 18.864 27.2838 18.9256 27.3185 18.9923C27.3568 19.0572 27.4049 19.1213 27.4486 19.1896C27.5002 19.2537 27.5519 19.3221 27.6107 19.387C27.6739 19.4486 27.73 19.5195 27.804 19.5768C27.9385 19.705 28.1041 19.8113 28.2769 19.9109C28.4524 20.0087 28.6484 20.0787 28.8479 20.1361C28.8987 20.1471 28.9503 20.158 29.002 20.169C29.0287 20.1757 29.0527 20.1791 29.075 20.1808L29.1445 20.1901L29.214 20.201C29.2238 20.2036 29.2398 20.2044 29.2567 20.2044L29.3057 20.2061L29.5026 20.2145C29.4518 20.2137 29.4901 20.2145 29.4794 20.2145H29.4972L29.5168 20.2129L29.5569 20.2112L29.6371 20.2078C29.6905 20.2078 29.7431 20.1994 29.7956 20.1918C29.8473 20.1825 29.9016 20.1825 29.9524 20.1681C30.004 20.1572 30.0557 20.1462 30.1065 20.1353C30.3069 20.0779 30.5028 20.0079 30.6783 19.91C30.8511 19.8105 31.0168 19.7042 31.1513 19.576C31.2252 19.5186 31.2813 19.4478 31.3446 19.3862C31.4034 19.3212 31.4541 19.2529 31.5067 19.1888C31.5512 19.1205 31.5993 19.0564 31.6367 18.9914C31.6724 18.9256 31.7124 18.864 31.74 18.8016C31.7677 18.7392 31.7917 18.6801 31.8175 18.6262C31.8371 18.573 31.855 18.5232 31.871 18.4794C31.879 18.4566 31.887 18.4347 31.895 18.4144C31.9013 18.3917 31.9066 18.368 31.9111 18.3478C31.9209 18.3056 31.9298 18.2702 31.9369 18.2415C31.952 18.1833 31.9601 18.1529 31.9601 18.1529C31.9859 18.0517 32.0937 17.9893 32.2014 18.0146C32.2834 18.0331 32.3404 18.0981 32.352 18.1723L32.3538 18.1732Z" fill="#33597F"/>
</g>
<g opacity="0.97">
<path d="M16.9825 11.521C16.9505 11.521 16.9184 11.5176 16.8863 11.5108C16.6485 11.4611 16.4989 11.2375 16.5523 11.0123C16.5603 10.9794 17.3638 7.74273 21.1244 7.37832C21.3676 7.35471 21.5831 7.52173 21.6081 7.75117C21.633 7.98061 21.4566 8.18559 21.2144 8.20921C18.079 8.51373 17.419 11.1675 17.4128 11.1945C17.3673 11.3894 17.1847 11.521 16.9825 11.521Z" fill="#33597F"/>
<path d="M31.3543 11.521C31.153 11.521 30.9713 11.3894 30.9249 11.1953C30.8982 11.0848 30.2391 8.5112 27.1233 8.20921C26.8811 8.18559 26.7047 7.98061 26.7296 7.75117C26.7546 7.52173 26.9719 7.35471 27.2133 7.37832C30.9739 7.74358 31.7782 10.9802 31.7854 11.0123C31.8379 11.2375 31.6883 11.4602 31.4513 11.5108C31.4193 11.5176 31.3872 11.521 31.3551 11.521H31.3543Z" fill="#33597F"/>
</g>
</svg>
